<svg width="902" height="287" viewBox="0 0 902 287" fill="none" xmlns="http://www.w3.org/2000/svg">
<path d="M0.833333 199.642C0.833333 205.533 5.60896 210.309 11.5 210.309C17.391 210.309 22.1667 205.533 22.1667 199.642C22.1667 193.751 17.391 188.975 11.5 188.975C5.60896 188.975 0.833333 193.751 0.833333 199.642ZM531.5 217.642L530.869 215.744L531.5 217.642ZM745.5 52.1421L746.532 53.8555L745.5 52.1421ZM328.5 173.642L327.823 171.76L328.5 173.642ZM879.833 11.6421C879.833 17.5331 884.609 22.3088 890.5 22.3088C896.391 22.3088 901.167 17.5331 901.167 11.6421C901.167 5.75105 896.391 0.975423 890.5 0.975423C884.609 0.975423 879.833 5.75105 879.833 11.6421ZM11.5 199.642C9.96685 200.926 9.96759 200.927 9.96864 200.929C9.9694 200.929 9.97075 200.931 9.97227 200.933C9.97529 200.936 9.97954 200.942 9.985 200.948C9.99593 200.961 10.0117 200.98 10.0323 201.004C10.0736 201.053 10.1342 201.124 10.214 201.217C10.3735 201.403 10.6095 201.677 10.9204 202.031C11.5422 202.739 12.4634 203.772 13.6702 205.079C16.0838 207.693 19.6408 211.405 24.231 215.818C33.4088 224.642 46.7304 236.281 63.3134 247.546C96.4463 270.054 142.807 291.207 195.23 285.129L194.77 281.155C143.692 287.077 98.3031 266.48 65.5611 244.238C49.2067 233.128 36.0597 221.642 27.0033 212.935C22.4763 208.582 18.9747 204.927 16.609 202.365C15.4262 201.084 14.5276 200.077 13.927 199.393C13.6267 199.05 13.4009 198.789 13.2513 198.614C13.1766 198.527 13.1208 198.462 13.0844 198.419C13.0662 198.397 13.0528 198.381 13.0442 198.371C13.04 198.366 13.0369 198.362 13.0351 198.36C13.0341 198.359 13.0337 198.358 13.0332 198.358C13.033 198.358 13.0332 198.358 11.5 199.642ZM532.131 219.54C548.593 214.063 566.091 203.388 584.048 189.947C602.021 176.493 620.57 160.18 639.126 143.336C676.333 109.561 713.469 73.7614 746.532 53.8555L744.468 50.4287C710.971 70.5964 673.429 106.794 636.437 140.374C617.894 157.208 599.463 173.412 581.651 186.744C563.822 200.089 546.729 210.468 530.869 215.744L532.131 219.54ZM195.23 285.129C221.354 282.1 238.937 275.124 251.585 265.864C264.234 256.603 271.778 245.178 278.005 233.585C290.518 210.285 297.651 186.862 329.177 175.524L327.823 171.76C294.496 183.745 286.629 209.073 274.481 231.692C268.377 243.058 261.175 253.885 249.222 262.636C237.269 271.388 220.396 278.184 194.77 281.155L195.23 285.129ZM329.177 175.524C364.13 162.954 395.959 179.432 428.842 196.76C461.383 213.908 494.97 231.902 532.131 219.54L530.869 215.744C495.599 227.478 463.601 210.556 430.707 193.222C398.156 176.068 364.701 158.498 327.823 171.76L329.177 175.524ZM746.532 53.8555C772.178 38.4148 808.151 28.3431 837.87 22.133C852.7 19.0341 865.916 16.9078 875.423 15.5565C880.176 14.881 884 14.3993 886.634 14.0869C887.95 13.9306 888.969 13.8167 889.658 13.742C890.002 13.7046 890.263 13.677 890.438 13.6589C890.525 13.6498 890.591 13.6431 890.635 13.6387C890.656 13.6365 890.672 13.6348 890.683 13.6338C890.688 13.6332 890.692 13.6328 890.695 13.6326C890.696 13.6325 890.697 13.6324 890.697 13.6323C890.698 13.6323 890.698 13.6323 890.5 11.6421C890.302 9.6519 890.302 9.65196 890.301 9.65206C890.3 9.65214 890.298 9.65227 890.297 9.65243C890.294 9.65275 890.289 9.65321 890.283 9.65382C890.271 9.65503 890.253 9.65681 890.23 9.65916C890.184 9.66388 890.115 9.67091 890.025 9.6803C889.844 9.69908 889.576 9.72729 889.226 9.76534C888.525 9.84144 887.493 9.95686 886.162 10.1147C883.502 10.4304 879.647 10.916 874.86 11.5963C865.289 12.9567 851.985 15.0971 837.052 18.2176C807.244 24.4462 770.718 34.6246 744.468 50.4287L746.532 53.8555Z" fill="#29BB49"/>
</svg>
