<svg width="39" height="33" viewBox="0 0 39 33" fill="none" xmlns="http://www.w3.org/2000/svg">
<path fill-rule="evenodd" clip-rule="evenodd" d="M19.3032 1.76491C19.3032 5.99187 16.155 9.48582 12.0764 10.0253C11.8122 8.03838 10.9377 6.2449 9.64636 4.84211C11.0716 2.297 13.7956 0.574219 16.9216 0.574219H18.1124C18.7711 0.574219 19.3032 1.10631 19.3032 1.76491ZM0.25 4.1463C0.25 3.4877 0.78215 2.95561 1.44083 2.95561H2.63165C7.23494 2.95561 10.9674 6.68769 10.9674 11.2905V12.4812V18.4346C10.9674 18.4739 10.9655 18.5127 10.9618 18.551C11.1044 20.2596 11.5912 21.932 12.4042 23.464C13.6721 25.8531 15.6675 27.7769 18.1016 28.9569C20.5357 30.1369 23.2822 30.512 25.9437 30.0279C28.6051 29.5437 31.0435 28.2254 32.9058 26.2638C34.7681 24.3022 35.9578 21.799 36.3026 19.1166C36.6475 16.4341 36.1296 13.7115 34.824 11.3429C33.5184 8.97418 31.4927 7.08228 29.0402 5.94099C26.9426 4.96483 24.6258 4.58109 22.339 4.81978C21.6961 4.88688 21.0802 4.48059 20.9544 3.84661C20.8286 3.21255 21.2405 2.59177 21.8824 2.51552C24.6584 2.18575 27.48 2.63301 30.0283 3.81889C32.9313 5.16985 35.3291 7.4093 36.8745 10.2131C38.42 13.017 39.033 16.2397 38.6248 19.415C38.2166 22.5902 36.8084 25.5533 34.6039 27.8752C32.3995 30.1972 29.5132 31.7577 26.3628 32.3308C23.2124 32.9039 19.9613 32.4599 17.08 31.0631C14.1988 29.6663 11.8368 27.3891 10.336 24.5611C9.37532 22.7508 8.79939 20.775 8.62956 18.7562C8.60103 18.654 8.58578 18.5461 8.58578 18.4346V18.0218C8.5734 17.6694 8.57336 17.3162 8.58578 16.9628V12.4812C3.9825 12.4812 0.25 8.74907 0.25 4.1463ZM34.1794 17.5665C34.1794 23.2657 29.5585 27.8858 23.8584 27.8858C18.1582 27.8858 13.5373 23.2657 13.5373 17.5665C13.5373 11.8672 18.1582 7.24711 23.8584 7.24711C29.5585 7.24711 34.1794 11.8672 34.1794 17.5665ZM19.3417 20.4642C19.6991 20.4642 19.9888 20.754 19.9888 21.1114V22.8974C19.9888 23.2548 19.6991 23.5445 19.3417 23.5445C18.9843 23.5445 18.6946 23.2548 18.6946 22.8974V21.1114C18.6946 20.754 18.9843 20.4642 19.3417 20.4642ZM24.4106 19.3252C24.4106 18.9678 24.1209 18.6781 23.7635 18.6781C23.4061 18.6781 23.1164 18.9678 23.1164 19.3252V22.8973C23.1164 23.2547 23.4061 23.5444 23.7635 23.5444C24.1209 23.5444 24.4106 23.2547 24.4106 22.8973V19.3252ZM28.1853 16.8837C28.5427 16.8837 28.8324 17.1734 28.8324 17.5308V22.8976C28.8324 23.2549 28.5427 23.5447 28.1853 23.5447C27.8279 23.5447 27.5382 23.2549 27.5382 22.8976V17.5308C27.5382 17.1734 27.8279 16.8837 28.1853 16.8837ZM27.535 14.8046V13.9784C25.3435 16.2271 22.5612 17.8267 19.4983 18.5905C19.1515 18.6769 18.8003 18.4659 18.7138 18.1191C18.6273 17.7724 18.8384 17.4211 19.1851 17.3347C22.0794 16.613 24.7016 15.0837 26.7456 12.9323H25.6541C25.2967 12.9323 25.007 12.6426 25.007 12.2852C25.007 11.9278 25.2967 11.6381 25.6541 11.6381H28.1733H28.1814H28.1822C28.5396 11.6381 28.8293 11.9278 28.8293 12.2852V14.8046C28.8293 15.162 28.5396 15.4518 28.1822 15.4518C27.8248 15.4518 27.535 15.162 27.535 14.8046Z" fill="#29BB49"/>
</svg>
