<svg width="177" height="151" viewBox="0 0 177 151" fill="none" xmlns="http://www.w3.org/2000/svg">
<g clip-path="url(#clip0_238_16426)">
<path d="M82.481 137.527C83.4961 137.884 84.586 137.973 85.6457 137.787C86.7054 137.6 87.6991 137.144 88.5312 136.461C90.6503 134.683 91.3148 131.753 91.8552 129.04L93.4542 121.015L90.1066 123.32C87.6991 124.977 85.2375 126.688 83.5707 129.089C81.9039 131.49 81.1767 134.768 82.5155 137.366" fill="#E4E4E4"/>
<path d="M82.9922 147.802C82.5708 144.733 82.1373 141.623 82.4336 138.521C82.6961 135.765 83.5368 133.074 85.2483 130.867C86.1567 129.698 87.2622 128.696 88.5149 127.907C88.8414 127.701 89.1421 128.218 88.8169 128.424C86.6493 129.793 84.9728 131.816 84.029 134.2C82.9866 136.851 82.8192 139.742 82.9988 142.558C83.1073 144.261 83.3379 145.953 83.5695 147.643C83.5878 147.719 83.5764 147.8 83.5376 147.868C83.4988 147.937 83.4354 147.988 83.3604 148.011C83.2839 148.032 83.2024 148.021 83.1335 147.982C83.0646 147.943 83.0139 147.878 82.9924 147.802L82.9922 147.802Z" fill="#F2F2F2"/>
<path d="M86.0234 142.877C86.4587 143.539 87.0571 144.077 87.761 144.441C88.4649 144.804 89.2505 144.98 90.0421 144.952C92.077 144.855 93.7727 143.436 95.2991 142.087L99.8147 138.1L96.8262 137.957C94.6771 137.854 92.4724 137.758 90.4254 138.421C88.3783 139.085 86.4905 140.679 86.1162 142.798" fill="#E4E4E4"/>
<path d="M81.805 149.567C83.8335 145.978 86.1862 141.989 90.3904 140.714C91.5593 140.361 92.7849 140.234 94.0013 140.341C94.3847 140.374 94.289 140.965 93.9063 140.932C91.8673 140.763 89.8322 141.301 88.1436 142.457C86.5187 143.563 85.2535 145.1 84.1828 146.731C83.5269 147.73 82.9393 148.771 82.3518 149.811C82.1641 150.143 81.6151 149.903 81.805 149.567Z" fill="#F2F2F2"/>
<path d="M149.135 106.062H0.960938V0.806641H149.135V106.062Z" fill="white"/>
<path d="M13.0297 44.0371C12.6468 44.0371 12.2796 44.1892 12.0088 44.46C11.738 44.7307 11.5859 45.0979 11.5859 45.4809C11.5859 45.8638 11.738 46.231 12.0088 46.5017C12.2796 46.7725 12.6468 46.9246 13.0297 46.9246H63.0684C63.4508 46.9239 63.8173 46.7714 64.0875 46.5008C64.3577 46.2301 64.5094 45.8633 64.5094 45.4809C64.5094 45.0984 64.3577 44.7316 64.0875 44.4609C63.8173 44.1903 63.4508 44.0378 63.0684 44.0371H13.0297Z" fill="#29BB49"/>
<path d="M13.0327 52.6992C12.6498 52.6984 12.2823 52.8497 12.011 53.1199C11.7396 53.3901 11.5867 53.757 11.5859 54.1399C11.5851 54.5228 11.7365 54.8904 12.0067 55.1617C12.2768 55.433 12.6437 55.5859 13.0266 55.5867H63.1084C63.4913 55.5867 63.8585 55.4346 64.1293 55.1638C64.4 54.8931 64.5521 54.5259 64.5521 54.143C64.5521 53.7601 64.4 53.3928 64.1293 53.1221C63.8585 52.8513 63.4913 52.6992 63.1084 52.6992H13.0327Z" fill="#29BB49"/>
<path d="M13.0327 61.2378C12.6498 61.237 12.2823 61.3883 12.011 61.6585C11.7396 61.9287 11.5867 62.2956 11.5859 62.6785C11.5851 63.0614 11.7365 63.4289 12.0067 63.7003C12.2768 63.9716 12.6437 64.1245 13.0266 64.1253H24.2965C24.6794 64.1253 25.0466 63.9732 25.3174 63.7024C25.5882 63.4317 25.7403 63.0644 25.7403 62.6815C25.7403 62.2986 25.5882 61.9314 25.3174 61.6607C25.0466 61.3899 24.6794 61.2378 24.2965 61.2378H13.0327Z" fill="#29BB49"/>
<path d="M149.135 106.062H0.960938V0.806641H149.135V106.062ZM3.39668 103.626H146.699V3.24238H3.39668V103.626Z" fill="#E5E5E5"/>
<path d="M102.515 82.9341C101.826 82.9331 101.166 83.2056 100.678 83.6915C100.19 84.1775 99.9155 84.8372 99.9141 85.5256C99.9126 86.2141 100.185 86.8749 100.67 87.3629C101.156 87.8509 101.815 88.1261 102.504 88.1281H127.301C127.643 88.1284 127.981 88.0615 128.296 87.9312C128.611 87.8008 128.898 87.6096 129.139 87.3684C129.381 87.1272 129.572 86.8408 129.703 86.5255C129.834 86.2103 129.901 85.8724 129.901 85.5311C129.901 85.1898 129.834 84.8519 129.703 84.5367C129.572 84.2214 129.381 83.935 129.139 83.6938C128.898 83.4526 128.611 83.2614 128.296 83.131C127.981 83.0007 127.643 82.9337 127.301 82.9341H102.515Z" fill="#E4E4E4"/>
<path d="M102.515 51.4844C101.826 51.4834 101.166 51.7559 100.678 52.2418C100.19 52.7278 99.9155 53.3875 99.9141 54.0759C99.9126 54.7644 100.185 55.4252 100.67 55.9132C101.156 56.4012 101.815 56.6764 102.504 56.6784H127.301C127.643 56.6787 127.981 56.6118 128.296 56.4814C128.611 56.3511 128.898 56.1598 129.139 55.9187C129.381 55.6775 129.572 55.3911 129.703 55.0758C129.834 54.7606 129.901 54.4226 129.901 54.0814C129.901 53.7401 129.834 53.4022 129.703 53.087C129.572 52.7717 129.381 52.4853 129.139 52.2441C128.898 52.0029 128.611 51.8117 128.296 51.6813C127.981 51.551 127.643 51.484 127.301 51.4844H102.515Z" fill="#E4E4E4"/>
<path d="M13.0327 84.1367C12.8431 84.1363 12.6553 84.1733 12.48 84.2455C12.3047 84.3176 12.1453 84.4236 12.011 84.5574C11.8766 84.6912 11.7699 84.8501 11.697 85.0252C11.6241 85.2002 11.5863 85.3878 11.5859 85.5774C11.5855 85.767 11.6225 85.9548 11.6947 86.1301C11.7669 86.3055 11.8729 86.4648 12.0067 86.5992C12.1404 86.7335 12.2994 86.8402 12.4744 86.9131C12.6494 86.9861 12.837 87.0238 13.0266 87.0242H63.1084C63.4913 87.0242 63.8585 86.8721 64.1293 86.6013C64.4 86.3306 64.5521 85.9634 64.5521 85.5805C64.5521 85.1976 64.4 84.8303 64.1293 84.5596C63.8585 84.2888 63.4913 84.1367 63.1084 84.1367H13.0327Z" fill="#E4E4E4"/>
<path d="M13.0327 92.6758C12.8431 92.6754 12.6553 92.7123 12.48 92.7845C12.3047 92.8567 12.1453 92.9627 12.011 93.0965C11.8766 93.2303 11.7699 93.3892 11.697 93.5642C11.6241 93.7392 11.5863 93.9269 11.5859 94.1165C11.5855 94.3061 11.6225 94.4939 11.6947 94.6692C11.7669 94.8445 11.8729 95.0039 12.0067 95.1383C12.1404 95.2726 12.2994 95.3793 12.4744 95.4522C12.6494 95.5251 12.837 95.5629 13.0266 95.5633H24.2965C24.6794 95.5633 25.0466 95.4112 25.3174 95.1404C25.5882 94.8697 25.7403 94.5024 25.7403 94.1195C25.7403 93.7366 25.5882 93.3694 25.3174 93.0986C25.0466 92.8279 24.6794 92.6758 24.2965 92.6758H13.0327Z" fill="#E4E4E4"/>
<path d="M13.0297 75.4746C12.6468 75.4746 12.2796 75.6267 12.0088 75.8975C11.738 76.1682 11.5859 76.5354 11.5859 76.9184C11.5859 77.3013 11.738 77.6685 12.0088 77.9392C12.2796 78.21 12.6468 78.3621 13.0297 78.3621H63.0684C63.4508 78.3614 63.8173 78.2089 64.0875 77.9383C64.3577 77.6676 64.5094 77.3008 64.5094 76.9184C64.5094 76.5359 64.3577 76.1691 64.0875 75.8984C63.8173 75.6278 63.4508 75.4753 63.0684 75.4746H13.0297Z" fill="#E4E4E4"/>
<path d="M13.0297 12.5991C12.6468 12.5991 12.2796 12.7512 12.0088 13.022C11.738 13.2927 11.5859 13.66 11.5859 14.0429C11.5859 14.4258 11.738 14.793 12.0088 15.0637C12.2796 15.3345 12.6468 15.4866 13.0297 15.4866H63.0684C63.4508 15.4859 63.8173 15.3335 64.0875 15.0628C64.3577 14.7921 64.5094 14.4253 64.5094 14.0429C64.5094 13.6604 64.3577 13.2936 64.0875 13.023C63.8173 12.7523 63.4508 12.5998 63.0684 12.5991H13.0297Z" fill="#E4E4E4"/>
<path d="M13.0327 21.2617C12.8431 21.2613 12.6553 21.2983 12.48 21.3705C12.3047 21.4426 12.1453 21.5487 12.011 21.6824C11.8766 21.8162 11.7699 21.9751 11.697 22.1502C11.6241 22.3252 11.5863 22.5128 11.5859 22.7024C11.5855 22.892 11.6225 23.0798 11.6947 23.2552C11.7669 23.4305 11.8729 23.5899 12.0067 23.7242C12.1404 23.8585 12.2994 23.9652 12.4744 24.0382C12.6494 24.1111 12.837 24.1488 13.0266 24.1492H63.1084C63.298 24.1492 63.4857 24.1119 63.6609 24.0393C63.8361 23.9668 63.9952 23.8604 64.1293 23.7263C64.2633 23.5923 64.3697 23.4331 64.4422 23.258C64.5148 23.0828 64.5521 22.8951 64.5521 22.7055C64.5521 22.5159 64.5148 22.3281 64.4422 22.153C64.3697 21.9778 64.2633 21.8186 64.1293 21.6846C63.9952 21.5505 63.8361 21.4442 63.6609 21.3716C63.4857 21.2991 63.298 21.2617 63.1084 21.2617H13.0327Z" fill="#E4E4E4"/>
<path d="M13.0327 29.8003C12.6498 29.7995 12.2823 29.9508 12.011 30.221C11.7396 30.4912 11.5867 30.8581 11.5859 31.241C11.5851 31.6239 11.7365 31.9914 12.0067 32.2628C12.2768 32.5341 12.6437 32.687 13.0266 32.6878H24.2965C24.6794 32.6878 25.0466 32.5357 25.3174 32.2649C25.5882 31.9942 25.7403 31.6269 25.7403 31.244C25.7403 30.8611 25.5882 30.4939 25.3174 30.2232C25.0466 29.9524 24.6794 29.8003 24.2965 29.8003H13.0327Z" fill="#E4E4E4"/>
<path d="M102.515 20.0591C101.826 20.0581 101.166 20.3306 100.678 20.8165C100.19 21.3025 99.9155 21.9622 99.9141 22.6506C99.9126 23.3391 100.185 23.9999 100.67 24.4879C101.156 24.9759 101.815 25.2511 102.504 25.2531H127.301C127.643 25.2534 127.981 25.1865 128.296 25.0562C128.611 24.9258 128.898 24.7346 129.139 24.4934C129.381 24.2522 129.572 23.9658 129.703 23.6505C129.834 23.3353 129.901 22.9974 129.901 22.6561C129.901 22.3148 129.834 21.9769 129.703 21.6617C129.572 21.3464 129.381 21.06 129.139 20.8188C128.898 20.5776 128.611 20.3864 128.296 20.256C127.981 20.1257 127.643 20.0587 127.301 20.0591H102.515Z" fill="#E4E4E4"/>
<path d="M107.736 27.2885C110.308 27.2885 112.393 25.2033 112.393 22.6311C112.393 20.0588 110.308 17.9736 107.736 17.9736C105.163 17.9736 103.078 20.0588 103.078 22.6311C103.078 25.2033 105.163 27.2885 107.736 27.2885Z" fill="#CACACA"/>
<path d="M115.876 55.2075C115.824 55.5814 115.855 55.962 115.967 56.3226C116.078 56.6832 116.267 57.015 116.521 57.2947C116.774 57.5743 117.086 57.7949 117.434 57.941C117.782 58.0871 118.158 58.1551 118.535 58.1403L121.008 63.4964L124.629 62.7873L121.031 55.2725C120.964 54.6406 120.667 54.0551 120.198 53.6272C119.728 53.1992 119.117 52.9584 118.482 52.9504C117.847 52.9424 117.23 53.1677 116.75 53.5837C116.27 53.9997 115.959 54.5775 115.876 55.2075Z" fill="#FFB6B6"/>
<path d="M140.931 75.4766L130.84 70.4851L123.719 58.3999L118.742 60.8075L125.202 74.7687L141.519 84.1883L140.931 75.4766Z" fill="#3F3D56"/>
<path d="M118.15 146.919L114.978 146.919L113.469 137.773L118.151 137.773L118.15 146.919Z" fill="#FFB6B6"/>
<path d="M118.955 149.994L108.727 149.994V149.864C108.727 148.809 109.146 147.796 109.893 147.049C110.639 146.303 111.652 145.883 112.708 145.883H112.708L118.955 145.884L118.955 149.994Z" fill="#2F2E41"/>
<path d="M149.811 141.101L147.597 143.374L139.992 138.074L143.259 134.72L149.811 141.101Z" fill="#FFB6B6"/>
<path d="M152.581 142.667L145.444 149.994L145.352 149.904C144.595 149.167 144.163 148.16 144.149 147.104C144.135 146.049 144.541 145.031 145.277 144.274L149.637 139.799L152.581 142.667Z" fill="#2F2E41"/>
<path d="M122.072 92.4873H119.878C114.174 98.7199 109.82 106.064 107.09 114.059L104.469 121.733L113.81 141.292L119.639 141.396L112.977 120.631L119.689 111.73L120.027 129.623L141.63 140.947L145.954 134.559L128.375 124.947L131.369 109.728C131.369 109.728 137.392 104.705 133.884 96.8523L122.072 92.4873Z" fill="#2F2E41"/>
<path d="M150.945 72.5692L141.828 68.5762L131.793 73.0228C131.793 73.0228 128.951 74.6392 130.762 78.7791L119.875 92.487C119.875 92.487 119.895 92.4926 133.578 96.852L145.923 85.9805C147.798 84.3298 149.236 82.2425 150.112 79.9033C150.988 77.5641 151.274 75.0451 150.945 72.5692Z" fill="#3F3D56"/>
<path d="M149.418 68.4582C152.927 68.4582 155.773 65.6129 155.773 62.1031C155.773 58.5933 152.927 55.748 149.418 55.748C145.908 55.748 143.062 58.5933 143.062 62.1031C143.062 65.6129 145.908 68.4582 149.418 68.4582Z" fill="#FFB6B6"/>
<path d="M157.643 53.6699C156.185 52.4833 153.923 52.2243 152.417 53.3503C149.791 51.9719 146.242 52.6909 144.359 54.9826C143.682 55.8073 143.202 56.923 143.537 57.9362C143.872 58.9493 145.318 59.545 146.071 58.7892L146.058 59.1005C146.737 59.7801 147.207 60.6394 147.414 61.5772C147.621 62.5151 147.556 63.4926 147.227 64.3948C146.898 65.297 146.318 66.0864 145.555 66.6702C144.792 67.254 143.879 67.608 142.922 67.6904C145.004 68.5317 147.087 69.373 149.169 70.2143C150.046 70.5682 150.95 70.9278 151.895 70.923C152.84 70.9181 153.847 70.459 154.214 69.588C154.477 70.3962 154.741 71.2044 155.005 72.0126C156.557 69.5431 157.834 66.9108 158.812 64.163C159.443 62.3917 159.952 60.5394 159.884 58.6604C159.816 56.7815 159.102 54.8564 157.643 53.6699Z" fill="#2F2E41"/>
<path d="M107.736 90.164C110.308 90.164 112.393 88.0788 112.393 85.5065C112.393 82.9343 110.308 80.8491 107.736 80.8491C105.163 80.8491 103.078 82.9343 103.078 85.5065C103.078 88.0788 105.163 90.164 107.736 90.164Z" fill="#CACACA"/>
<path d="M122.228 58.7387C124.8 58.7387 126.885 56.6535 126.885 54.0813C126.885 51.509 124.8 49.4238 122.228 49.4238C119.656 49.4238 117.57 51.509 117.57 54.0813C117.57 56.6535 119.656 58.7387 122.228 58.7387Z" fill="#29BB49"/>
<path d="M122.345 52.6196C122.293 52.9935 122.324 53.3741 122.435 53.7348C122.547 54.0954 122.736 54.4272 122.989 54.7068C123.243 54.9864 123.555 55.207 123.903 55.3531C124.251 55.4992 124.626 55.5672 125.004 55.5524L127.477 60.9085L131.098 60.1994L127.499 52.6846C127.432 52.0527 127.136 51.4673 126.666 51.0393C126.197 50.6113 125.586 50.3705 124.951 50.3625C124.315 50.3545 123.699 50.5798 123.219 50.9958C122.738 51.4118 122.427 51.9896 122.345 52.6196Z" fill="#FFB6B6"/>
<path d="M147.4 72.8892L137.309 67.8977L130.188 55.8125L125.211 58.2201L131.67 72.1813L147.988 81.6009L147.4 72.8892Z" fill="#3F3D56"/>
<path d="M175.786 150.193H77.2041C77.1354 150.193 77.0696 150.166 77.0211 150.117C76.9726 150.068 76.9453 150.003 76.9453 149.934C76.9453 149.865 76.9726 149.8 77.0211 149.751C77.0696 149.703 77.1354 149.675 77.2041 149.675H175.786C175.855 149.675 175.921 149.703 175.969 149.751C176.018 149.8 176.045 149.865 176.045 149.934C176.045 150.003 176.018 150.068 175.969 150.117C175.921 150.166 175.855 150.193 175.786 150.193Z" fill="#CACACA"/>
</g>
<defs>
<clipPath id="clip0_238_16426">
<rect width="175.083" height="149.386" fill="white" transform="translate(0.960938 0.806641)"/>
</clipPath>
</defs>
</svg>
