<svg width="123" height="121" viewBox="0 0 123 121" fill="none" xmlns="http://www.w3.org/2000/svg">
<g clip-path="url(#clip0_238_16462)">
<path d="M122.018 120.226C122.018 120.378 121.896 120.5 121.744 120.5H1.25889C1.10665 120.5 0.984375 120.378 0.984375 120.226C0.984375 120.073 1.10665 119.951 1.25889 119.951H121.744C121.896 119.951 122.018 120.073 122.018 120.226Z" fill="#3F3D56"/>
<path d="M84.6207 106.859L86.0048 112.627L81.8524 113.78L80.9297 107.551L84.6207 106.859Z" fill="#FFB6B6"/>
<path d="M91.3075 88.1738L86.9245 91.8648L84.1562 96.2478L88.0779 98.7854L94.7678 91.1727L91.3075 88.1738Z" fill="#FFB6B6"/>
<path d="M89.9269 50.1113L93.6179 62.5684C93.6179 62.5684 109.997 76.8709 108.382 79.8698C106.767 82.8687 95.9247 91.1734 95.9247 91.1734C95.9247 91.1734 96.7294 93.8291 94.3662 92.7319C92.0031 91.6348 89.4655 88.6359 89.4655 88.6359C89.4655 88.6359 89.4655 86.329 90.6189 86.7904C91.7724 87.2518 97.0782 81.0233 97.0782 81.0233L85.5439 70.4117V105.895C85.5439 105.895 88.3121 108.315 85.5439 108.51C82.7756 108.706 80.2381 109.167 80.2381 109.167C80.2381 109.167 77.0085 108.014 78.1619 106.86L74.7016 87.9438L72.1641 64.8752L74.0096 52.8796L89.9269 50.1113Z" fill="#2F2E41"/>
<path d="M82.5451 111.934C82.5451 111.934 82.7758 111.012 83.6986 111.012H86.5167C86.5167 111.012 87.3895 114.933 87.1588 114.933C86.9282 114.933 90.8498 120.008 86.6975 120.239C82.5451 120.47 81.3917 120.008 81.3917 120.008L80.9303 118.188C80.9303 118.188 80.2383 117.01 80.469 116.087C80.6996 115.164 82.5451 111.934 82.5451 111.934Z" fill="#2F2E41"/>
<path d="M88.3079 96.9404C88.3079 96.9404 90.9574 96.8987 90.3247 97.6116C89.692 98.3246 88.5386 99.478 88.5386 99.478C88.5386 99.478 85.7947 105.014 84.5138 103.976C83.2328 102.938 81.1566 91.404 81.8487 90.0199C82.5407 88.6357 83.4635 88.6357 83.4635 88.6357L87.7194 91.1953C87.7194 91.1953 85.0783 97.6325 88.3079 96.9404Z" fill="#2F2E41"/>
<path d="M81.8457 30.5029L82.7685 24.7358L76.5399 22.1982L75.6172 30.9643L81.8457 30.5029Z" fill="#FFB6B6"/>
<path opacity="0.1" d="M81.8457 30.5029L82.7685 24.7358L76.5399 22.1982L75.6172 30.9643L81.8457 30.5029Z" fill="black"/>
<path d="M75.2767 29.6951L82.6586 27.8496L90.5019 30.3872C90.5019 30.3872 93.9622 40.076 92.8088 43.5363C91.6554 46.9965 91.6554 53.7555 91.6554 53.7555C91.6554 53.7555 91.54 50.8029 84.8501 52.879C78.1602 54.9552 73.3158 54.7245 73.3158 54.7245L73.0851 46.4198L70.1872 39.0432C68.9485 35.8903 70.2836 32.3105 73.2844 30.7387L75.2767 29.6951Z" fill="#E6E6E6"/>
<path d="M109.165 56.8705C110.206 58.1184 110.407 59.6674 109.613 60.3302C108.818 60.9929 107.33 60.5185 106.288 59.27C105.865 58.777 105.567 58.1898 105.417 57.5577L101.07 52.2145L103.188 50.501L107.635 55.7065C108.231 55.9668 108.755 56.3659 109.165 56.8705Z" fill="#FFB6B6"/>
<path d="M90.1691 30.4609L88.6562 36.4533L96.0606 48.3057L103.619 55.9024L106.069 53.8699L98.4461 44.3849L92.6679 32.1637L90.1691 30.4609Z" fill="#E6E6E6"/>
<path d="M107.794 24.6772C113.066 24.2875 116.941 18.5641 116.448 11.8935C115.955 5.22299 111.281 0.131338 106.008 0.521006C100.735 0.910674 96.8606 6.6341 97.3535 13.3046C97.8465 19.9752 102.521 25.0668 107.794 24.6772Z" fill="#29BB49"/>
<path d="M107.594 24.6768H107.133V70.6843H107.594V24.6768Z" fill="#2F2E41"/>
<path d="M107.711 23.7061L107.767 25.3363L108.503 26.8455L105.43 26.6887L106.722 25.3891L106.576 23.9078L107.711 23.7061Z" fill="#29BB49"/>
<path d="M80.2735 26.5899C83.7814 26.5899 86.6251 23.7462 86.6251 20.2383C86.6251 16.7304 83.7814 13.8867 80.2735 13.8867C76.7656 13.8867 73.9219 16.7304 73.9219 20.2383C73.9219 23.7462 76.7656 26.5899 80.2735 26.5899Z" fill="#FFB6B6"/>
<path d="M79.7669 11.6989C79.9507 11.8062 80.1969 11.6439 80.2558 11.4394C80.3147 11.2349 80.2461 11.0178 80.178 10.8162L79.8353 9.80115C79.5923 9.08127 79.3343 8.33622 78.8079 7.7883C78.0134 6.96129 76.7508 6.7509 75.6141 6.90332C74.1545 7.09906 72.7143 7.88945 72.0356 9.19647C71.3569 10.5035 71.6458 12.3272 72.8722 13.1427C71.1243 15.146 70.5151 17.3786 70.6113 20.0355C70.7075 22.6924 73.6028 25.1376 75.491 27.0093C75.9126 26.7537 76.296 25.5558 76.0641 25.1206C75.8322 24.6855 76.1644 24.1813 75.8773 23.7805C75.5901 23.3797 75.3499 24.0179 75.6402 23.6194C75.8234 23.3679 75.1084 22.7893 75.3807 22.6388C76.6978 21.9107 77.1358 20.269 77.9631 19.0118C78.9609 17.4954 80.6686 16.4684 82.4759 16.2981C83.4714 16.2042 84.5229 16.3742 85.3389 16.9521C86.1549 17.5301 86.6832 18.5629 86.494 19.5448C86.984 19.0472 87.228 18.318 87.136 17.6257C87.044 16.9334 86.618 16.2932 86.015 15.9409C86.3817 14.7284 86.0676 13.3336 85.2165 12.3953C84.3655 11.457 80.9132 11.6168 79.6708 11.8638" fill="#2F2E41"/>
<path d="M79.5767 16.335C77.9311 16.5126 76.743 17.938 75.7397 19.2544C75.1614 20.0132 74.5556 20.8511 74.5702 21.8049C74.5848 22.7693 75.2296 23.5965 75.5378 24.5104C76.0415 26.0043 75.5506 27.7817 74.3516 28.8053C75.5363 29.0301 76.8171 28.1418 77.0216 26.9534C77.2597 25.5699 76.211 24.2346 76.3352 22.8363C76.4446 21.6044 77.4154 20.6562 78.2407 19.7351C79.0661 18.814 79.8412 17.5917 79.4615 16.4147" fill="#2F2E41"/>
<path d="M73.5149 54.6094H26.07C20.6897 54.6094 16.3281 58.971 16.3281 64.3512V110.358C16.3281 115.738 20.6897 120.099 26.07 120.099H73.5149C78.8952 120.099 83.2568 115.738 83.2568 110.358V64.3512C83.2568 58.971 78.8952 54.6094 73.5149 54.6094Z" fill="white"/>
<path d="M73.5191 120.33H26.0741C20.5753 120.33 16.1016 115.857 16.1016 110.358V64.3515C16.1016 58.8526 20.5753 54.3789 26.0741 54.3789H73.5191C79.0179 54.3789 83.4916 58.8526 83.4916 64.3515V110.358C83.4916 115.857 79.0179 120.33 73.5191 120.33ZM26.0741 54.8403C20.8296 54.8403 16.5629 59.107 16.5629 64.3515V110.358C16.5629 115.602 20.8296 119.869 26.0741 119.869H73.5191C78.7636 119.869 83.0302 115.602 83.0302 110.358V64.3515C83.0302 59.107 78.7636 54.8403 73.5191 54.8403H26.0741Z" fill="#3F3D56"/>
<path d="M68.5142 59.1349C69.1218 59.1349 69.6144 58.6423 69.6144 58.0347C69.6144 57.4271 69.1218 56.9346 68.5142 56.9346C67.9066 56.9346 67.4141 57.4271 67.4141 58.0347C67.4141 58.6423 67.9066 59.1349 68.5142 59.1349Z" fill="#3F3D56"/>
<path d="M71.5377 59.1349C72.1452 59.1349 72.6378 58.6423 72.6378 58.0347C72.6378 57.4271 72.1452 56.9346 71.5377 56.9346C70.9301 56.9346 70.4375 57.4271 70.4375 58.0347C70.4375 58.6423 70.9301 59.1349 71.5377 59.1349Z" fill="#3F3D56"/>
<path d="M74.5611 59.1349C75.1687 59.1349 75.6612 58.6423 75.6612 58.0347C75.6612 57.4271 75.1687 56.9346 74.5611 56.9346C73.9535 56.9346 73.4609 57.4271 73.4609 58.0347C73.4609 58.6423 73.9535 59.1349 74.5611 59.1349Z" fill="#3F3D56"/>
<path d="M24.5183 103.993C24.1765 103.993 23.8984 104.271 23.8984 104.613C23.8984 104.78 23.9628 104.934 24.0796 105.048C24.1975 105.168 24.3518 105.233 24.5183 105.233H74.1385C74.4803 105.233 74.7583 104.955 74.7583 104.613C74.7583 104.446 74.6939 104.292 74.5771 104.178C74.4593 104.058 74.3049 103.993 74.1385 103.993H24.5183Z" fill="#E6E6E6"/>
<path d="M51.0539 103.786V105.439H24.5218C24.2945 105.439 24.0879 105.348 23.9391 105.195C23.7862 105.046 23.6953 104.84 23.6953 104.613C23.6953 104.158 24.0672 103.786 24.5218 103.786L51.0539 103.786Z" fill="#29BB49"/>
<path d="M73.1048 100.687H64.8404C63.929 100.687 63.1875 99.9453 63.1875 99.0338C63.1875 98.1222 63.929 97.3809 64.8404 97.3809H73.1048C74.0162 97.3809 74.7577 98.1222 74.7577 99.0338C74.7577 99.9453 74.0162 100.687 73.1048 100.687Z" fill="#E6E6E6"/>
<path d="M42.0633 101.869L36.286 82.457L35.8438 82.5886L41.6008 101.932" fill="#2F2E41"/>
<path d="M42.2623 57.6908C47.5352 57.3012 51.4101 51.5777 50.9171 44.9072C50.4242 38.2367 45.75 33.145 40.4771 33.5347C35.2042 33.9243 31.3293 39.6478 31.8223 46.3183C32.3152 52.9889 36.9894 58.0805 42.2623 57.6908Z" fill="#29BB49"/>
<path d="M42.0629 57.6904H41.6016V103.698H42.0629V57.6904Z" fill="#2F2E41"/>
<path d="M36.5395 81.8945L37.0574 83.4413L38.1939 84.6777L35.2031 85.404L36.0709 83.7899L35.5085 82.4118L36.5395 81.8945Z" fill="#29BB49"/>
<path d="M42.1723 56.7197L42.2276 58.35L42.9644 59.8592L39.8906 59.7024L41.1827 58.4028L41.0366 56.9215L42.1723 56.7197Z" fill="#29BB49"/>
<path d="M36.6974 82.2994C41.6357 80.4103 43.7016 73.8145 41.3118 67.5673C38.922 61.3201 32.9814 57.7871 28.0431 59.6762C23.1048 61.5653 21.0389 68.1611 23.4287 74.4083C25.8185 80.6555 31.7591 84.1885 36.6974 82.2994Z" fill="#29BB49"/>
<path d="M78.6102 52.2478C80.1664 52.7176 81.1853 53.9014 80.8862 54.8917C80.587 55.882 79.0832 56.3036 77.5266 55.8334C76.9022 55.6542 76.3298 55.3279 75.8573 54.8821L69.2891 52.8082L70.1158 50.2129L76.6928 52.1162C77.3333 52.0063 77.9908 52.0514 78.6102 52.2478Z" fill="#FFB6B6"/>
<path d="M67.2047 35.2313L74.1252 30.1562L73.8945 39.8451L67.4353 48.1498L74.3559 50.918L74.1252 54.8705C74.1252 54.8705 65.3592 52.7635 63.975 52.5328C62.5909 52.3021 61.4375 49.0725 61.4375 49.0725L67.2047 35.2313Z" fill="#E6E6E6"/>
</g>
<defs>
<clipPath id="clip0_238_16462">
<rect width="121.034" height="120" fill="white" transform="translate(0.984375 0.5)"/>
</clipPath>
</defs>
</svg>
