<svg width="209" height="121" viewBox="0 0 209 121" fill="none" xmlns="http://www.w3.org/2000/svg">
<g clip-path="url(#clip0_238_16391)">
<path d="M174.953 13.2382C176.292 22.7065 169.892 20.923 165.224 20.1909C164.112 20.0161 162.074 21.5116 161.371 21.911C160.976 20.5087 160.953 20.8604 159.912 19.6883C160.474 21.2308 158.747 21.918 159.376 22.8198C157.813 22.7087 157.122 19.3823 158.524 12.129C159.141 8.93729 160.75 4.04571 167.336 5.12659C174.472 6.2982 174.534 10.2734 174.953 13.2382Z" fill="#2F2E41"/>
<path d="M165.504 20.2013C168.765 20.2013 171.407 17.5585 171.407 14.2984C171.407 11.0383 168.765 8.39551 165.504 8.39551C162.244 8.39551 159.602 11.0383 159.602 14.2984C159.602 17.5585 162.244 20.2013 165.504 20.2013Z" fill="#A0616A"/>
<path d="M157.562 12.1916L160.39 12.6237C161.637 11.8427 162.112 10.6838 162.171 9.32148L161.887 12.8525L163.238 13.059C164.121 12.4705 164.515 11.8332 164.277 11.1327L164.112 13.1925C167.714 14.4904 171.206 15.4476 174.154 14.7271C174.306 13.7333 174.26 12.7193 174.02 11.743C173.78 10.7667 173.35 9.84718 172.755 9.03704C172.16 8.2269 171.41 7.54196 170.55 7.02132C169.69 6.50068 168.736 6.15454 167.742 6.00266L166.287 5.78025C165.293 5.62837 164.279 5.67372 163.303 5.91373C162.326 6.15373 161.407 6.58368 160.597 7.17904C159.787 7.77439 159.102 8.52347 158.581 9.38353C158.061 10.2436 157.714 11.1978 157.562 12.1916Z" fill="#2F2E41"/>
<path d="M148.053 51.0451H12.5845C11.746 51.0441 10.9421 50.7106 10.3493 50.1177C9.75636 49.5248 9.42285 48.721 9.42188 47.8825V19.8276C9.42285 18.9892 9.75636 18.1853 10.3493 17.5924C10.9421 16.9995 11.746 16.666 12.5845 16.665H148.053C148.892 16.666 149.695 16.9995 150.288 17.5924C150.881 18.1853 151.215 18.9892 151.216 19.8276V47.8825C151.215 48.721 150.881 49.5248 150.288 50.1177C149.695 50.7106 148.892 51.0441 148.053 51.0451Z" fill="#E6E6E6"/>
<path d="M138.909 48.9127H14.7173C13.8788 48.9117 13.075 48.5782 12.4821 47.9853C11.8892 47.3924 11.5557 46.5886 11.5547 45.7501V21.9634C11.5557 21.1249 11.8892 20.3211 12.4821 19.7282C13.075 19.1353 13.8788 18.8018 14.7173 18.8008H145.919C146.757 18.8018 147.561 19.1353 148.154 19.7282C148.747 20.3211 149.081 21.1249 149.082 21.9634V38.74C149.079 41.4371 148.006 44.0227 146.099 45.9298C144.192 47.8369 141.606 48.9097 138.909 48.9127Z" fill="white"/>
<path d="M122.529 29.5834H84.7063C84.4899 29.5834 84.2825 29.4975 84.1295 29.3445C83.9766 29.1916 83.8906 28.9841 83.8906 28.7678C83.8906 28.5515 83.9766 28.344 84.1295 28.191C84.2825 28.0381 84.4899 27.9521 84.7063 27.9521H122.529C122.745 27.9521 122.952 28.0381 123.105 28.191C123.258 28.344 123.344 28.5515 123.344 28.7678C123.344 28.9841 123.258 29.1916 123.105 29.3445C122.952 29.4975 122.745 29.5834 122.529 29.5834Z" fill="#29BB49"/>
<path d="M132.105 34.4252H75.1359C74.9196 34.4252 74.7122 34.3393 74.5592 34.1863C74.4062 34.0334 74.3203 33.8259 74.3203 33.6096C74.3203 33.3933 74.4062 33.1858 74.5592 33.0328C74.7122 32.8799 74.9196 32.7939 75.1359 32.7939H132.105C132.321 32.7939 132.528 32.8799 132.681 33.0328C132.834 33.1858 132.92 33.3933 132.92 33.6096C132.92 33.8259 132.834 34.0334 132.681 34.1863C132.528 34.3393 132.321 34.4252 132.105 34.4252Z" fill="#E6E6E6"/>
<path d="M132.105 39.7597H75.1359C74.9196 39.7597 74.7122 39.6738 74.5592 39.5208C74.4062 39.3678 74.3203 39.1604 74.3203 38.9441C74.3203 38.7277 74.4062 38.5203 74.5592 38.3673C74.7122 38.2143 74.9196 38.1284 75.1359 38.1284H132.105C132.321 38.1284 132.528 38.2143 132.681 38.3673C132.834 38.5203 132.92 38.7277 132.92 38.9441C132.92 39.1604 132.834 39.3678 132.681 39.5208C132.528 39.6738 132.321 39.7597 132.105 39.7597Z" fill="#E6E6E6"/>
<path d="M84.207 21.344H83.7422V3.43994H117.359V3.90472H84.207V21.344Z" fill="#3F3D56"/>
<path d="M131.572 0.5H119.255C118.454 0.5 117.686 0.818292 117.119 1.38485C116.553 1.95142 116.234 2.71984 116.234 3.52107C116.234 4.32231 116.553 5.09073 117.119 5.6573C117.686 6.22386 118.454 6.54215 119.255 6.54215H131.572C132.373 6.54215 133.142 6.22386 133.708 5.6573C134.275 5.09073 134.593 4.32231 134.593 3.52107C134.593 2.71984 134.275 1.95142 133.708 1.38485C133.142 0.818292 132.373 0.5 131.572 0.5Z" fill="#29BB49"/>
<path d="M83.7058 24.3852C85.239 24.3852 86.4819 23.1423 86.4819 21.6091C86.4819 20.0759 85.239 18.833 83.7058 18.833C82.1726 18.833 80.9297 20.0759 80.9297 21.6091C80.9297 23.1423 82.1726 24.3852 83.7058 24.3852Z" fill="#E6E6E6"/>
<path d="M184.27 115.577H181.705L180.484 105.684H184.27V115.577Z" fill="#A0616A"/>
<path d="M185.625 120.022H183.785L183.457 118.285L182.616 120.022H177.737C177.504 120.022 177.276 119.947 177.087 119.809C176.899 119.67 176.76 119.475 176.69 119.252C176.621 119.028 176.624 118.789 176.701 118.568C176.777 118.346 176.922 118.156 177.114 118.023L181.01 115.332V113.576L185.108 113.821L185.625 120.022Z" fill="#2F2E41"/>
<path d="M166.606 115.577H164.041L162.82 105.684H166.606V115.577Z" fill="#A0616A"/>
<path d="M167.961 120.022H166.121L165.793 118.285L164.952 120.022H160.073C159.839 120.022 159.612 119.947 159.423 119.809C159.235 119.67 159.096 119.475 159.026 119.252C158.957 119.028 158.96 118.789 159.037 118.568C159.113 118.346 159.258 118.156 159.45 118.023L163.346 115.332V113.576L167.444 113.821L167.961 120.022Z" fill="#2F2E41"/>
<path d="M190.889 58.0857C191.069 57.8322 191.192 57.5422 191.248 57.2362C191.304 56.9302 191.293 56.6156 191.214 56.3146C191.135 56.0136 190.992 55.7334 190.793 55.4939C190.595 55.2544 190.346 55.0614 190.065 54.9284L183.812 36.627L180.086 38.5824L187.147 56.072C186.955 56.5593 186.948 57.1001 187.128 57.592C187.308 58.0839 187.662 58.4927 188.124 58.7409C188.585 58.9892 189.121 59.0596 189.631 58.9388C190.141 58.818 190.588 58.5145 190.889 58.0857Z" fill="#A0616A"/>
<path d="M151.78 66.2563C152.078 66.1674 152.353 66.0141 152.586 65.8074C152.818 65.6006 153.003 65.3454 153.126 65.0597C153.249 64.7741 153.308 64.4648 153.299 64.1539C153.29 63.8429 153.212 63.5377 153.072 63.2598L159.399 44.9836L155.259 44.2339L150.069 62.3669C149.617 62.6329 149.279 63.0552 149.119 63.5538C148.958 64.0524 148.986 64.5925 149.197 65.0719C149.408 65.5514 149.787 65.9367 150.264 66.155C150.74 66.3733 151.279 66.4094 151.78 66.2563Z" fill="#A0616A"/>
<path d="M161.756 55.3442C161.756 55.3442 178.254 51.132 177.559 52.5555C177.559 52.5555 182.653 50.9789 183.36 61.4895L183.136 82.5338L184.057 98.9628C184.057 98.9628 183.496 100.3 184.125 100.183C184.755 100.066 184.229 102.028 184.229 102.028C184.229 102.028 183.699 104.117 184.343 104.067C184.987 104.017 184.522 107.27 184.522 107.27H180.339L172.325 71.2503L168.728 84.393C168.728 84.393 168.926 85.8015 168.591 85.846C168.255 85.8905 168.491 86.903 168.491 86.903L168.365 88.2335L166.628 106.573L162.678 106.806C162.678 106.806 162.647 106.403 162.678 105.411C162.701 104.674 162.928 103.497 162.33 102.527C161.666 101.449 161.28 100.202 162.054 98.8288C162.589 97.8782 161.894 96.5691 161.811 95.3318C161.289 87.5258 160.727 77.1085 160.744 68.5946C160.744 68.2549 160.213 67.4055 160.748 67.5847C161.283 67.764 160.756 66.8185 160.761 66.4424C160.771 65.7452 161.491 64.5296 160.806 64.4039C160.121 64.2782 160.828 63.7356 160.841 63.4094C160.976 59.9666 161.261 57.1318 161.756 55.3442Z" fill="#2F2E41"/>
<path d="M169.195 20.9502L162.456 21.6474L161.803 24.7895L155.406 28.6965L157.62 34.6816C157.62 34.6816 155.822 40.7423 160.904 43.1731L162.688 48.3723L162.059 52.0658L161.885 53.0911C162.331 53.9189 162.409 54.5274 161.624 54.6212L161.371 56.1086C160.246 56.7597 160.285 57.9171 160.829 59.2946L183.371 61.6185C184.298 58.5907 179.294 48.5933 176.632 47.6751L176.978 32.7389L177.553 22.9125L169.884 23.6097L169.195 20.9502Z" fill="#3F3D56"/>
<path d="M175.797 23.3537C176.11 23.1274 176.471 22.9748 176.851 22.9072C177.231 22.8396 177.622 22.8589 177.994 22.9635C178.366 23.0681 178.709 23.2553 178.999 23.5112C179.288 23.7672 179.516 24.0852 179.665 24.4415L183.676 34.0123C184.434 34.2865 185.68 36.6198 185.229 37.2176C185.238 37.8497 185.019 37.3906 185.632 38.2676C186.329 38.3171 186.511 38.6106 186.03 39.2179L185.926 40.0063L186.21 40.0598C186.97 40.087 187.009 40.3702 186.535 40.8358C186.692 40.9304 186.813 41.0754 186.878 41.2472C186.942 41.4191 186.947 41.6077 186.891 41.7825L186.383 43.3629L182.432 45.2221L175.933 33.0346L174.884 26.2965C174.697 25.7732 174.685 25.2034 174.85 24.6727C175.014 24.142 175.347 23.6791 175.797 23.3537Z" fill="#3F3D56"/>
<path d="M157.785 28.9598C157.43 28.6525 156.991 28.4584 156.525 28.4025C156.058 28.3466 155.586 28.4314 155.168 28.6461C154.751 28.8607 154.407 29.1954 154.181 29.6071C153.955 30.0188 153.857 30.4887 153.901 30.9563C154.213 34.3375 154.546 37.9354 154.546 37.9354L154.001 47.3057L158.967 48.3726L159.159 47.0289L159.664 46.7458L159.31 45.9686C159.4 45.9773 159.49 45.9637 159.573 45.9291C159.656 45.8944 159.729 45.8397 159.786 45.7699C159.842 45.7001 159.881 45.6173 159.897 45.529C159.914 45.4407 159.909 45.3496 159.882 45.2638L159.558 44.2339C159.609 44.2752 159.672 44.2989 159.737 44.3015C159.803 44.3041 159.867 44.2853 159.921 44.2481C159.975 44.2109 160.016 44.1572 160.036 44.095C160.057 44.0329 160.057 43.9656 160.037 43.9033L159.735 42.9894L161.053 33.7523L158.209 29.4431C158.09 29.2634 157.948 29.1008 157.785 28.9598Z" fill="#3F3D56"/>
<path d="M100.934 46.5845H100.469V64.4885H134.086V64.0237H100.934V46.5845Z" fill="#3F3D56"/>
<path d="M151.328 64.4073C151.327 63.6063 151.008 62.8383 150.442 62.2719C149.875 61.7055 149.108 61.387 148.307 61.3862H135.99C135.189 61.3862 134.42 61.7045 133.854 62.2711C133.287 62.8376 132.969 63.6061 132.969 64.4073C132.969 65.2085 133.287 65.977 133.854 66.5435C134.42 67.1101 135.189 67.4284 135.99 67.4284H148.307C149.108 67.4276 149.875 67.1091 150.442 66.5427C151.008 65.9763 151.327 65.2083 151.328 64.4073Z" fill="#29BB49"/>
<path d="M100.901 48.3213C102.434 48.3213 103.677 47.0784 103.677 45.5452C103.677 44.012 102.434 42.769 100.901 42.769C99.3679 42.769 98.125 44.012 98.125 45.5452C98.125 47.0784 99.3679 48.3213 100.901 48.3213Z" fill="#E6E6E6"/>
<path d="M51.074 46.8164H51.5388V64.7205H17.9219V64.2557H51.074V46.8164Z" fill="#3F3D56"/>
<path d="M3.70857 67.6613H16.0253C16.8265 67.6613 17.5949 67.343 18.1615 66.7764C18.728 66.2099 19.0463 65.4415 19.0463 64.6402C19.0463 63.839 18.728 63.0706 18.1615 62.504C17.5949 61.9374 16.8265 61.6191 16.0253 61.6191H3.70857C2.90734 61.6191 2.13892 61.9374 1.57235 62.504C1.00579 63.0706 0.6875 63.839 0.6875 64.6402C0.6875 65.4415 1.00579 66.2099 1.57235 66.7764C2.13892 67.343 2.90734 67.6613 3.70857 67.6613Z" fill="#29BB49"/>
<path d="M51.6355 48.166C53.1687 48.166 54.4116 46.9231 54.4116 45.3899C54.4116 43.8567 53.1687 42.6138 51.6355 42.6138C50.1023 42.6138 48.8594 43.8567 48.8594 45.3899C48.8594 46.9231 50.1023 48.166 51.6355 48.166Z" fill="#E6E6E6"/>
<path d="M200.299 120.262H192.586L192.553 120.202C192.455 120.023 192.36 119.834 192.271 119.639C191.476 117.938 191.14 115.993 190.844 114.277L190.621 112.983C190.594 112.827 190.614 112.665 190.679 112.52C190.745 112.375 190.851 112.253 190.986 112.169C191.122 112.085 191.278 112.044 191.437 112.049C191.596 112.055 191.75 112.108 191.878 112.202C193.05 113.055 194.223 113.907 195.396 114.758C195.84 115.081 196.347 115.455 196.833 115.859C196.88 115.632 196.929 115.403 196.978 115.178C197.012 115.023 197.091 114.881 197.206 114.771C197.321 114.661 197.466 114.588 197.623 114.561C197.779 114.533 197.941 114.554 198.086 114.619C198.231 114.684 198.353 114.791 198.437 114.926L199.34 116.376C199.998 117.434 200.579 118.478 200.46 119.603C200.461 119.616 200.46 119.63 200.457 119.644C200.434 119.828 200.39 120.01 200.326 120.185L200.299 120.262Z" fill="#F0F0F0"/>
<path d="M208.046 120.428L134.76 120.5C134.687 120.499 134.617 120.47 134.565 120.418C134.513 120.366 134.484 120.296 134.484 120.223C134.484 120.15 134.513 120.08 134.565 120.028C134.617 119.976 134.687 119.947 134.76 119.946L208.046 119.875C208.119 119.875 208.189 119.905 208.24 119.957C208.292 120.008 208.321 120.079 208.321 120.152C208.321 120.225 208.292 120.295 208.24 120.347C208.189 120.399 208.119 120.428 208.046 120.428Z" fill="#CACACA"/>
<path d="M24.8817 42.1784C29.5021 42.1784 33.2477 38.4328 33.2477 33.8123C33.2477 29.1919 29.5021 25.4463 24.8817 25.4463C20.2612 25.4463 16.5156 29.1919 16.5156 33.8123C16.5156 38.4328 20.2612 42.1784 24.8817 42.1784Z" fill="#F2F2F2"/>
<path d="M56.5778 29.54H51.0578C50.8415 29.54 50.634 29.454 50.4811 29.3011C50.3281 29.1481 50.2422 28.9407 50.2422 28.7243C50.2422 28.508 50.3281 28.3005 50.4811 28.1476C50.634 27.9946 50.8415 27.9087 51.0578 27.9087H56.5778C56.7942 27.9087 57.0016 27.9946 57.1546 28.1476C57.3075 28.3005 57.3935 28.508 57.3935 28.7243C57.3935 28.9407 57.3075 29.1481 57.1546 29.3011C57.0016 29.454 56.7942 29.54 56.5778 29.54Z" fill="#29BB49"/>
<path d="M66.1538 34.3813H41.4875C41.2712 34.3813 41.0637 34.2953 40.9108 34.1424C40.7578 33.9894 40.6719 33.782 40.6719 33.5656C40.6719 33.3493 40.7578 33.1419 40.9108 32.9889C41.0637 32.8359 41.2712 32.75 41.4875 32.75H66.1538C66.3702 32.75 66.5776 32.8359 66.7306 32.9889C66.8835 33.1419 66.9695 33.3493 66.9695 33.5656C66.9695 33.782 66.8835 33.9894 66.7306 34.1424C66.5776 34.2953 66.3702 34.3813 66.1538 34.3813Z" fill="#E6E6E6"/>
<path d="M66.1538 39.7162H41.4875C41.2712 39.7162 41.0637 39.6303 40.9108 39.4773C40.7578 39.3244 40.6719 39.1169 40.6719 38.9006C40.6719 38.6843 40.7578 38.4768 40.9108 38.3239C41.0637 38.1709 41.2712 38.085 41.4875 38.085H66.1538C66.3702 38.085 66.5776 38.1709 66.7306 38.3239C66.8835 38.4768 66.9695 38.6843 66.9695 38.9006C66.9695 39.1169 66.8835 39.3244 66.7306 39.4773C66.5776 39.6303 66.3702 39.7162 66.1538 39.7162Z" fill="#E6E6E6"/>
</g>
<defs>
<clipPath id="clip0_238_16391">
<rect width="207.631" height="120" fill="white" transform="translate(0.6875 0.5)"/>
</clipPath>
</defs>
</svg>
