<svg width="131" height="168" viewBox="0 0 131 168" fill="none" xmlns="http://www.w3.org/2000/svg">
<path d="M9.31603 139.531C-17.9781 99.1373 29.1147 78.2369 29.1147 78.2369C14.1747 52.0013 12.1248 23.9271 26.3216 2.70204C29.2995 -1.71286 36.0829 2.66311 33.0125 7.21512C21.1832 24.9302 22.4337 48.1562 34.1278 70.6864C37.3697 56.4752 48.4136 33.0038 86.5583 41.5767C78.7098 79.7712 54.0596 83.1332 41.1027 82.0539C45.9625 89.2818 51.916 96.1302 58.9627 102.719C58.9627 102.719 78.7965 60.3597 113.515 79.8678C104.621 121.387 64.2575 107.527 64.2575 107.527C68.541 111.054 78.071 118.161 78.2904 118.309C78.2904 118.309 118.162 102.791 130.638 138.417C95.8005 164.631 74.7486 125.216 74.7486 125.216C74.2173 125.057 68.1297 120.951 65.5897 119.038C65.5897 119.038 81.6348 147.894 56.1284 167.077C20.1601 141.14 53.1978 108.485 53.1978 108.485C46.498 102.211 40.6261 95.537 35.6452 88.6663C35.6452 88.6663 45.4665 128.406 9.31603 139.531Z" fill="#29BB49" fill-opacity="0.6"/>
</svg>
