<svg width="185" height="161" viewBox="0 0 185 161" fill="none" xmlns="http://www.w3.org/2000/svg">
<path d="M127.561 160.757C182.003 135.424 145.542 83.4825 145.542 83.4825C177.959 65.2606 197.933 36.9203 196.409 5.5046C196.066 -1.04579 186.128 -0.728953 186.482 6.02487C187.733 32.2328 171.679 55.9616 145.039 72.3303C150.632 55.2695 153.861 23.4822 108.15 8.33501C92.2059 53.6398 116.099 72.8271 130.463 79.9074C120.747 84.4555 110.117 87.9093 98.4975 90.3949C98.4975 90.3949 104.429 33.09 55.3972 31.6615C38.4482 81.1395 89.8569 92.1124 89.8569 92.1124C83.0965 93.1195 68.5266 94.5766 68.2011 94.5937C68.2011 94.5937 35.9492 52.9163 0.175975 82.6149C20.3276 132.392 67.5587 104.133 67.5587 104.133C68.2203 104.302 77.2526 103.829 81.1477 103.421C81.1477 103.421 45.9012 123.709 60.6618 160.142C115.091 155.576 100.926 100.141 100.926 100.141C111.98 97.7662 122.413 94.4452 132.031 90.351C132.031 90.351 96.451 126.078 127.561 160.757Z" fill="#29BB49" fill-opacity="0.6"/>
</svg>
