<svg width="20" height="15" viewBox="0 0 20 15" fill="none" xmlns="http://www.w3.org/2000/svg">
<path d="M2.42969 0.260376C1.46354 0.260376 0.679688 1.04423 0.679688 2.01038C0.679688 2.5609 0.938542 3.0786 1.37969 3.41038L9.31302 9.36038C9.72865 9.67027 10.2974 9.67027 10.713 9.36038L18.6464 3.41038C19.0875 3.0786 19.3464 2.5609 19.3464 2.01038C19.3464 1.04423 18.5625 0.260376 17.5964 0.260376H2.42969ZM0.679688 4.34371V11.927C0.679688 13.214 1.72604 14.2604 3.01302 14.2604H17.013C18.3 14.2604 19.3464 13.214 19.3464 11.927V4.34371L11.413 10.2937C10.5818 10.9171 9.44427 10.9171 8.61302 10.2937L0.679688 4.34371Z" fill="black"/>
</svg>
