<svg width="21" height="22" viewBox="0 0 21 22" fill="none" xmlns="http://www.w3.org/2000/svg">
<path d="M15.7464 6.27575C15.6939 6.267 15.6327 6.267 15.5802 6.27575C14.3727 6.232 13.4102 5.24324 13.4102 4.01824C13.4102 2.76699 14.4164 1.76074 15.6677 1.76074C16.9189 1.76074 17.9252 2.77574 17.9252 4.01824C17.9164 5.24324 16.9539 6.232 15.7464 6.27575Z"  stroke-width="1.3125" stroke-linecap="round" stroke-linejoin="round"/>
<path d="M14.8446 12.6459C16.0434 12.8471 17.3646 12.6371 18.2921 12.0159C19.5259 11.1934 19.5259 9.84588 18.2921 9.02338C17.3559 8.40213 16.0171 8.19213 14.8184 8.40213"  stroke-width="1.3125" stroke-linecap="round" stroke-linejoin="round"/>
<path d="M5.22367 6.27575C5.27617 6.267 5.33742 6.267 5.38992 6.27575C6.59742 6.232 7.55992 5.24324 7.55992 4.01824C7.55992 2.76699 6.55367 1.76074 5.30242 1.76074C4.05117 1.76074 3.04492 2.77574 3.04492 4.01824C3.05367 5.24324 4.01617 6.232 5.22367 6.27575Z"  stroke-width="1.3125" stroke-linecap="round" stroke-linejoin="round"/>
<path d="M6.12574 12.6459C4.92699 12.8471 3.60574 12.6371 2.67824 12.0159C1.44449 11.1934 1.44449 9.84588 2.67824 9.02338C3.61449 8.40213 4.95324 8.19213 6.15199 8.40213"  stroke-width="1.3125" stroke-linecap="round" stroke-linejoin="round"/>
<path d="M10.4984 12.8119C10.4459 12.8031 10.3846 12.8031 10.3321 12.8119C9.12461 12.7681 8.16211 11.7794 8.16211 10.5544C8.16211 9.30313 9.16836 8.29688 10.4196 8.29688C11.6709 8.29688 12.6771 9.31188 12.6771 10.5544C12.6684 11.7794 11.7059 12.7769 10.4984 12.8119Z"  stroke-width="1.3125" stroke-linecap="round" stroke-linejoin="round"/>
<path d="M7.95266 15.5682C6.71891 16.3907 6.71891 17.7382 7.95266 18.5607C9.35266 19.4969 11.6452 19.4969 13.0452 18.5607C14.2789 17.7382 14.2789 16.3907 13.0452 15.5682C11.6539 14.6407 9.35266 14.6407 7.95266 15.5682Z"  stroke-width="1.3125" stroke-linecap="round" stroke-linejoin="round"/>
</svg>
