<svg width="199" height="150" viewBox="0 0 199 150" fill="none" xmlns="http://www.w3.org/2000/svg">
<g clip-path="url(#clip0_238_16360)">
<path d="M79.7647 14.4683C77.3562 18.6174 81.8913 25.6084 77.3207 27.0601L77.6972 26.6836C80.4562 23.2899 74.6896 16.1071 77.4486 12.7134C77.8772 12.2156 78.2452 11.6686 78.5448 11.084" fill="#2F2E41"/>
<path d="M102.314 75.3392C102.392 74.924 102.379 74.4966 102.275 74.0869C102.171 73.6773 101.979 73.2955 101.711 72.9684C101.443 72.6413 101.107 72.3768 100.726 72.1936C100.346 72.0105 99.9291 71.913 99.5065 71.9082L93.5531 54.6118L90.2578 58.8121L96.5523 74.9737C96.5912 75.6842 96.8895 76.3557 97.3905 76.861C97.8914 77.3663 98.5604 77.6703 99.2705 77.7154C99.9807 77.7604 100.683 77.5434 101.244 77.1055C101.804 76.6675 102.185 76.0391 102.314 75.3392Z" fill="#FFB8B8"/>
<path d="M76.1492 33.5788C76.1492 33.5788 75.9639 27.3177 81.5628 30.9044C87.1617 34.4911 99.352 68.09 99.352 68.09L93.2856 71.3721L79.514 40.6253L76.1492 33.5788Z" fill="#29BB49"/>
<path d="M92.6642 140.889L89.8684 142.084L83.9297 131.869L88.0562 130.105L92.6642 140.889Z" fill="#FFB6B6"/>
<path d="M96.2125 145.103L94.2075 145.959L93.0408 144.219L92.9331 146.504L87.6155 148.776C87.3606 148.885 87.0776 148.91 86.8077 148.847C86.5378 148.783 86.2953 148.635 86.1154 148.424C85.9356 148.213 85.8279 147.951 85.808 147.674C85.7882 147.398 85.8572 147.122 86.0051 146.888L88.9984 142.14L88.1806 140.227L92.7611 138.584L96.2125 145.103Z" fill="#2F2E41"/>
<path d="M48.8392 144.354L45.8026 144.206L44.9297 132.422L49.4118 132.641L48.8392 144.354Z" fill="#FFB6B6"/>
<path d="M50.1838 149.694L48.0061 149.588L47.7178 147.513L46.6218 149.52L40.8459 149.238C40.569 149.224 40.3038 149.123 40.0888 148.948C39.8738 148.773 39.7203 148.534 39.6509 148.265C39.5814 147.997 39.5995 147.713 39.7026 147.456C39.8057 147.199 39.9883 146.981 40.2238 146.835L44.9919 143.875L45.0935 141.796L49.9309 142.323L50.1838 149.694Z" fill="#2F2E41"/>
<path d="M138.311 142.477C138.512 142.484 138.71 142.429 138.879 142.32C139.049 142.211 139.18 142.052 139.256 141.866C139.332 141.679 139.348 141.474 139.304 141.278C139.259 141.081 139.155 140.904 139.006 140.768C138.98 140.67 138.962 140.6 138.936 140.502C139.124 140.011 139.454 139.588 139.884 139.286C140.314 138.984 140.824 138.817 141.349 138.807C141.875 138.797 142.391 138.945 142.832 139.23C143.273 139.515 143.619 139.926 143.825 140.409C145.014 143.121 146.547 145.926 145.827 148.932C150.673 138.402 148.867 125.379 141.472 116.484C139.441 115.39 137.784 113.428 137.336 111.136C138.339 111.466 139.578 110.64 138.816 109.594C138.487 109.195 138.154 108.799 137.824 108.399C141.584 104.318 146.17 110.632 142.041 116.132C143.425 117.834 144.628 119.676 145.629 121.627C145.382 119.547 145.633 117.438 146.36 115.473C147.099 113.642 148.502 112.092 149.735 110.503C151.234 108.567 154.366 109.424 154.593 111.861C153.197 112.334 153.035 114.359 154.639 114.621C154.263 119.161 151.339 123.358 147.276 125.387C148.824 129.602 149.455 134.098 149.128 138.577C149.799 133.34 155.401 132.017 159.305 129.901C159.553 129.739 159.843 129.652 160.14 129.652C160.436 129.651 160.727 129.737 160.976 129.899C161.224 130.061 161.421 130.291 161.54 130.563C161.66 130.834 161.698 131.135 161.65 131.427C161.111 131.653 160.595 131.931 160.111 132.258C159.884 132.414 159.711 132.636 159.615 132.894C159.519 133.153 159.506 133.434 159.576 133.7C159.646 133.966 159.797 134.204 160.008 134.381C160.219 134.558 160.48 134.665 160.754 134.688C158.823 139.602 153.741 142.938 148.489 142.969C148.005 145.167 147.294 147.309 146.367 149.36L138.572 149.434C138.544 149.348 138.518 149.259 138.492 149.172C139.214 149.211 139.937 149.161 140.647 149.023C138.717 146.781 137.23 145.642 138.311 142.477Z" fill="#F2F2F2"/>
<path d="M56.5094 67.7569C56.5094 67.7569 50.3341 84.5862 50.2343 86.4695C50.1345 88.3528 48.3734 112.168 46.8963 113.552C45.4193 114.936 40.9037 136.389 44.4173 138.067C47.9309 139.745 59.0162 136.965 59.0162 136.965L62.8725 111.624L64.1825 92.2091C64.1825 92.2091 68.1707 137.927 75.4042 137.793C82.6376 137.658 91.4521 134.904 91.4521 134.904L81.3276 107.217C81.3276 107.217 81.4708 74.4384 79.124 67.8272C76.7773 61.2161 56.5094 67.7569 56.5094 67.7569Z" fill="#2F2E41"/>
<path d="M74.831 24.3975L66.5608 25.155L65.2284 29.2448C65.2284 29.2448 58.3074 33.0457 59.8399 34.7725C61.3725 36.4993 59.4972 48.1364 59.4972 48.1364L59.9208 57.5824C59.9208 57.5824 59.4658 64.1268 58.1043 65.6346C56.7427 67.1424 53.1807 70.8399 55.6975 69.0709C64.5226 62.8685 79.9478 68.102 79.9478 68.102L77.7442 54.605C77.7442 54.605 82.7494 32.507 80.7742 30.6408C78.7989 28.7745 76.9352 28.5386 76.9352 28.5386L74.831 24.3975Z" fill="#29BB49"/>
<path d="M31.3791 67.2108C31.7946 67.1334 32.1881 66.9659 32.5318 66.72C32.8756 66.4741 33.1612 66.1558 33.3687 65.7876C33.5761 65.4194 33.7003 65.0101 33.7325 64.5887C33.7646 64.1673 33.704 63.7439 33.5549 63.3485L47.5035 51.5145L42.3926 49.9717L29.6252 61.7109C28.9775 62.0055 28.4603 62.5274 28.1717 63.1778C27.8831 63.8282 27.8431 64.5619 28.0593 65.2398C28.2755 65.9178 28.7328 66.4928 29.3447 66.8561C29.9565 67.2194 30.6804 67.3456 31.3791 67.2108Z" fill="#FFB8B8"/>
<path d="M66.8057 36.2563C66.8057 36.2563 69.554 30.6275 62.9747 31.589C56.3953 32.5505 31.4453 58.1431 31.4453 58.1431L35.6207 63.633L60.8366 41.2907L66.8057 36.2563Z" fill="#29BB49"/>
<path d="M56.085 26.7087L29.9992 60.128C29.548 60.708 29.345 61.4433 29.4349 62.1727C29.5248 62.9021 29.9002 63.5661 30.4788 64.0192C36.5366 78.7279 54.6599 89.6351 75.9793 99.5352C76.5592 99.9869 77.2946 100.19 78.0241 100.1C78.7536 100.01 79.4177 99.6346 79.8705 99.0556L105.956 65.6364C106.408 65.0565 106.611 64.3211 106.521 63.5916C106.431 62.8621 106.056 62.198 105.477 61.7452C87.5857 51.6428 72.2084 39.9383 59.9762 26.2292C59.3962 25.7779 58.6609 25.575 57.9315 25.6649C57.2021 25.7548 56.5381 26.1302 56.085 26.7087Z" fill="#E6E6E6"/>
<path d="M104.126 64.8764L96.1854 75.0489C91.3351 81.2254 84.2375 85.2315 76.4431 86.1921C68.6487 87.1527 60.7909 84.9897 54.5861 80.1755L32.3339 62.8063C32.0042 62.5489 31.7902 62.1713 31.7386 61.7562C31.6871 61.3412 31.8022 60.9226 32.0589 60.5924L57.2657 28.2993C57.5237 27.9701 57.9018 27.7568 58.3169 27.706C58.732 27.6553 59.1504 27.7712 59.4801 28.0285C70.7365 42.5638 85.804 53.8751 103.853 62.6643C104.182 62.9218 104.396 63.2993 104.447 63.714C104.498 64.1287 104.382 64.5467 104.126 64.8764Z" fill="white"/>
<path d="M55.5642 44.9524L50.3931 51.5772C50.2558 51.7527 50.0546 51.8665 49.8335 51.8937C49.6124 51.9208 49.3895 51.8591 49.2139 51.722C49.0383 51.585 48.9243 51.3838 48.897 51.1627C48.8696 50.9416 48.9312 50.7187 49.0681 50.543L54.2392 43.9181C54.3071 43.831 54.3915 43.7581 54.4875 43.7037C54.5836 43.6492 54.6894 43.6142 54.799 43.6006C54.9086 43.587 55.0198 43.5952 55.1262 43.6247C55.2326 43.6541 55.3322 43.7042 55.4193 43.7722C55.5063 43.8401 55.5791 43.9245 55.6335 44.0206C55.6879 44.1167 55.7229 44.2226 55.7363 44.3322C55.7498 44.4418 55.7415 44.553 55.712 44.6594C55.6824 44.7658 55.6322 44.8654 55.5642 44.9524Z" fill="#CCCCCC"/>
<path d="M65.2654 40.0383L53.9092 54.5871C53.8412 54.6741 53.7569 54.7469 53.6608 54.8013C53.5648 54.8557 53.459 54.8906 53.3495 54.9041C53.2399 54.9176 53.1288 54.9094 53.0224 54.88C52.9161 54.8505 52.8166 54.8004 52.7296 54.7325C52.6426 54.6646 52.5698 54.5802 52.5154 54.4842C52.461 54.3881 52.4261 54.2823 52.4126 54.1728C52.3991 54.0633 52.4073 53.9521 52.4367 53.8458C52.4662 53.7394 52.5163 53.6399 52.5842 53.5529L63.9404 39.0041C64.0082 38.9169 64.0926 38.8439 64.1887 38.7894C64.2847 38.7348 64.3906 38.6997 64.5003 38.6861C64.6099 38.6725 64.7212 38.6806 64.8276 38.7101C64.9341 38.7395 65.0338 38.7896 65.1209 38.8576C65.208 38.9256 65.2808 39.0101 65.3352 39.1062C65.3896 39.2024 65.4245 39.3083 65.438 39.418C65.4514 39.5277 65.443 39.6389 65.4134 39.7454C65.3838 39.8518 65.3335 39.9513 65.2654 40.0383Z" fill="#CCCCCC"/>
<path d="M45.9026 64.3052C48.9597 64.3052 51.438 61.8269 51.438 58.7698C51.438 55.7127 48.9597 53.2344 45.9026 53.2344C42.8455 53.2344 40.3672 55.7127 40.3672 58.7698C40.3672 61.8269 42.8455 64.3052 45.9026 64.3052Z" fill="#29BB49"/>
<path d="M65.8737 51.5364L51.9259 69.4053C51.7804 69.5535 51.5854 69.643 51.3781 69.6566C51.1708 69.6703 50.9657 69.6072 50.802 69.4794C50.6382 69.3516 50.5272 69.1679 50.4901 68.9635C50.4531 68.7591 50.4925 68.5482 50.601 68.371L64.5487 50.5022C64.6943 50.354 64.8893 50.2645 65.0966 50.2509C65.3038 50.2372 65.5089 50.3003 65.6727 50.4281C65.8364 50.5559 65.9474 50.7395 65.9845 50.9439C66.0216 51.1484 65.9821 51.3593 65.8737 51.5364Z" fill="#CCCCCC"/>
<path d="M74.917 47.4569L55.4494 72.3974C55.3038 72.5456 55.1088 72.6351 54.9015 72.6488C54.6942 72.6624 54.4892 72.5993 54.3254 72.4715C54.1616 72.3437 54.0506 72.1601 54.0136 71.9557C53.9765 71.7512 54.016 71.5403 54.1244 71.3632L73.592 46.4226C73.7376 46.2744 73.9326 46.1849 74.1399 46.1713C74.3472 46.1576 74.5522 46.2207 74.716 46.3485C74.8798 46.4763 74.9908 46.66 75.0278 46.8644C75.0649 47.0688 75.0254 47.2797 74.917 47.4569Z" fill="#CCCCCC"/>
<path d="M74.8502 58.5472L60.9025 76.416C60.757 76.5642 60.5619 76.6537 60.3547 76.6674C60.1474 76.6811 59.9423 76.618 59.7785 76.4901C59.6148 76.3623 59.5038 76.1787 59.4667 75.9743C59.4296 75.7699 59.4691 75.559 59.5775 75.3818L73.5253 57.513C73.6708 57.3647 73.8658 57.2753 74.0731 57.2616C74.2804 57.2479 74.4855 57.311 74.6492 57.4388C74.813 57.5667 74.924 57.7503 74.9611 57.9547C74.9981 58.1591 74.9587 58.37 74.8502 58.5472Z" fill="#CCCCCC"/>
<path d="M93.3034 60.7503L79.3556 78.6191C79.2101 78.7674 79.0151 78.8568 78.8078 78.8705C78.6005 78.8842 78.3954 78.8211 78.2316 78.6933C78.0679 78.5654 77.9569 78.3818 77.9198 78.1774C77.8828 77.973 77.9222 77.7621 78.0307 77.5849L91.9784 59.7161C92.1239 59.5679 92.3189 59.4784 92.5262 59.4647C92.7335 59.4511 92.9386 59.5141 93.1024 59.642C93.2661 59.7698 93.3771 59.9534 93.4142 60.1578C93.4512 60.3622 93.4118 60.5731 93.3034 60.7503Z" fill="#29BB49"/>
<path d="M83.9014 54.4666L64.4338 79.4071C64.2882 79.5554 64.0932 79.6448 63.8859 79.6585C63.6786 79.6722 63.4735 79.6091 63.3098 79.4813C63.146 79.3534 63.035 79.1698 62.998 78.9654C62.9609 78.761 63.0003 78.5501 63.1088 78.3729L82.5764 53.4324C82.722 53.2842 82.917 53.1947 83.1243 53.181C83.3316 53.1674 83.5366 53.2305 83.7004 53.3583C83.8641 53.4861 83.9751 53.6697 84.0122 53.8741C84.0493 54.0785 84.0098 54.2894 83.9014 54.4666Z" fill="#CCCCCC"/>
<path d="M60.9688 13.8397C60.9683 15.1844 61.2978 16.5086 61.9286 17.6961C62.5593 18.8837 63.472 19.8982 64.5863 20.6507C65.7007 21.4032 66.9828 21.8706 68.32 22.012C69.6572 22.1533 71.0086 21.9643 72.2557 21.4614C73.5028 20.9585 74.6074 20.1571 75.4724 19.1277C76.3375 18.0983 76.9367 16.8722 77.2173 15.5572C77.4979 14.2421 77.4514 12.8783 77.0819 11.5854C76.7124 10.2925 76.0312 9.11012 75.0981 8.14197L75.0586 8.10258C74.9929 8.03355 74.9272 7.96456 74.8582 7.89882C74.8577 7.89883 74.8573 7.89875 74.8569 7.89859C74.8565 7.89842 74.8561 7.89818 74.8558 7.89788C74.8555 7.89757 74.8553 7.8972 74.8551 7.8968C74.855 7.8964 74.8549 7.89597 74.8549 7.89553C74.7695 7.81668 74.684 7.73781 74.5953 7.66224C73.4083 6.62156 71.9465 5.94504 70.3849 5.71368C68.8233 5.48232 67.2282 5.70593 65.7904 6.35774C64.3526 7.00954 63.1332 8.06191 62.278 9.38887C61.4229 10.7158 60.9683 12.2611 60.9688 13.8397Z" fill="#2F2E41"/>
<path d="M71.2087 22.6288C75.0131 22.6288 78.0971 19.5448 78.0971 15.7404C78.0971 11.9361 75.0131 8.85205 71.2087 8.85205C67.4043 8.85205 64.3203 11.9361 64.3203 15.7404C64.3203 19.5448 67.4043 22.6288 71.2087 22.6288Z" fill="#FFB8B8"/>
<path d="M63.8672 17.5764C63.1939 14.5422 64.1671 11.1427 66.289 9.11708C67.3561 8.11838 68.6834 7.44105 70.1183 7.16293C71.5532 6.8848 73.0375 7.01717 74.4005 7.54481C74.5737 7.61475 74.747 7.69127 74.917 7.77116L74.996 7.80842V7.81999C75.0114 7.83061 75.0267 7.84178 75.0421 7.85308C75.0741 7.88318 75.1133 7.90477 75.1558 7.91588C75.7539 7.90023 76.3486 8.01115 76.9009 8.24135C77.4531 8.47156 77.9505 8.81587 78.3604 9.2517C79.428 10.4101 79.9308 12.2822 79.7766 14.5231L79.7718 14.5931L79.7121 14.6304C78.9038 15.1426 78.065 15.605 77.2005 16.0152C74.1764 17.4371 71.4157 17.7006 68.7624 16.8196L68.7137 16.8035L67.6 14.937C67.3714 16.2243 67.4935 20.4942 66.1816 20.7255L63.8957 17.7051L63.8672 17.5764Z" fill="#2F2E41"/>
<path d="M49.3617 23.5737C51.7058 22.3638 48.6911 17.9725 49.2969 15.4051C49.9027 12.8377 54.2652 12.0119 54.5431 9.38868C54.821 6.76542 55.4748 4.05982 57.2058 2.06927C58.3119 0.797319 59.9418 -0.141684 61.6199 0.0176367C62.1876 0.0715405 62.7371 0.24718 63.2309 0.532593C63.7247 0.818006 64.1511 1.20649 64.4813 1.67158C64.8114 2.13667 65.0373 2.66743 65.1438 3.22774C65.2503 3.78804 65.2348 4.36471 65.0983 4.91847C65.5761 4.24148 66.8126 4.38821 67.1186 5.15826C67.3907 5.84283 66.7896 6.67204 66.0822 6.73261C65.1566 7.87573 64.0966 9.08889 62.6465 9.31948C62.4154 9.37254 62.1753 9.37241 61.9443 9.31909C61.7133 9.26577 61.4975 9.16067 61.3131 9.01171C60.9719 8.68409 60.9454 8.02907 61.3501 7.78424C59.5277 8.50816 58.4592 10.4786 58.1888 12.4208C57.9184 14.363 58.2925 16.3281 58.539 18.2735C58.7855 20.2189 58.8918 22.2653 58.129 24.0718C57.2278 26.2063 55.1529 27.7361 52.8885 28.2266C50.6241 28.7172 48.2126 28.2378 46.1629 27.1575C44.1133 26.0771 42.4041 24.4279 41.0078 22.579C43.413 24.2868 46.7405 24.9266 49.3617 23.5737Z" fill="#2F2E41"/>
<path d="M67.9131 15.2945C65.5046 19.4436 70.0398 26.4345 65.4691 27.8863L65.8457 27.5097C68.6046 24.1161 62.838 16.9333 65.597 13.5396C66.0257 13.0418 66.3936 12.4948 66.6932 11.9102" fill="#2F2E41"/>
<path d="M64.1875 17.5131C64.1875 17.5131 66.228 9.89646 74.9751 8.13848C74.9849 8.13523 75.0178 8.12207 75.0605 8.10238C75.0868 8.08594 75.1197 8.06949 75.1525 8.05307C75.0539 7.9972 74.9587 7.94794 74.8601 7.8986L74.8588 7.89837L74.8577 7.89766L74.857 7.89658L74.8568 7.89532C74.7714 7.81646 74.6859 7.7376 74.5972 7.66203L74.3475 7.6719C74.3475 7.6719 65.5709 6.28199 64.1875 17.5131Z" fill="#FD6584"/>
<path d="M0.656251 149.673C0.656123 149.716 0.664516 149.758 0.680944 149.798C0.697373 149.838 0.721515 149.874 0.75198 149.905C0.782445 149.935 0.818631 149.959 0.85846 149.976C0.898288 149.992 0.940972 150 0.984055 150H198.011C198.098 150 198.181 149.966 198.243 149.904C198.304 149.843 198.339 149.759 198.339 149.673C198.339 149.586 198.304 149.502 198.243 149.441C198.181 149.379 198.098 149.345 198.011 149.345H0.984038C0.940957 149.345 0.898277 149.353 0.858451 149.369C0.818625 149.386 0.782439 149.41 0.751976 149.44C0.721513 149.471 0.697372 149.507 0.680944 149.547C0.664516 149.587 0.656125 149.629 0.656251 149.673Z" fill="#CCCCCC"/>
</g>
<defs>
<clipPath id="clip0_238_16360">
<rect width="197.682" height="150" fill="white" transform="translate(0.65625)"/>
</clipPath>
</defs>
</svg>
