<svg width="21" height="22" viewBox="0 0 21 22" fill="none" xmlns="http://www.w3.org/2000/svg">
<path d="M5.88875 17.5886C6.60625 16.8186 7.7 16.8798 8.33 17.7198L9.21375 18.9011C9.9225 19.8373 11.0688 19.8373 11.7775 18.9011L12.6613 17.7198C13.2913 16.8798 14.385 16.8186 15.1025 17.5886C16.66 19.2511 17.9287 18.6998 17.9287 16.3723V6.51107C17.9375 2.98482 17.115 2.10107 13.8075 2.10107H7.1925C3.885 2.10107 3.0625 2.98482 3.0625 6.51107V16.3636C3.0625 18.6998 4.34 19.2423 5.88875 17.5886Z"  stroke-width="1.3125" stroke-linecap="round" stroke-linejoin="round"/>
<path d="M7.08406 9.97607H7.09192"  stroke-width="1.75" stroke-linecap="round" stroke-linejoin="round"/>
<path d="M9.53613 9.97607H14.3486"  stroke-width="1.3125" stroke-linecap="round" stroke-linejoin="round"/>
<path d="M7.08406 6.47607H7.09192"  stroke-width="1.75" stroke-linecap="round" stroke-linejoin="round"/>
<path d="M9.53613 6.47607H14.3486"  stroke-width="1.3125" stroke-linecap="round" stroke-linejoin="round"/>
</svg>
