<svg width="58" height="20" viewBox="0 0 58 20" fill="none" xmlns="http://www.w3.org/2000/svg">
<path d="M9.35958 3.98283L6.10059 10.9084V19.4796H51.8131V10.9084L45.0002 5.41413L41.3739 8.60083L38.2688 2.63579C37.7445 1.62844 36.384 1.43732 35.6024 2.2612L33.1324 4.86467L29.3963 3.65592L25.4404 10.9084L17.8583 3.65592L14.6716 6.84262L12.1523 3.6605C11.3903 2.69803 9.88227 2.87208 9.35958 3.98283Z" fill="url(#paint0_linear_797_8933)"/>
<path d="M6.10059 10.9084L9.64365 3.37917C10.0357 2.5461 11.1667 2.41556 11.7382 3.13742L13.807 5.75063C14.2674 6.33216 15.1319 6.38225 15.6564 5.85778L17.0006 4.51361C17.4773 4.03687 18.2476 4.02831 18.7348 4.49434L24.27 9.78881C24.86 10.3532 25.825 10.2033 26.216 9.48646L28.904 4.55851C29.1895 4.03503 29.8072 3.78885 30.3745 3.9724L32.3889 4.62409C32.8432 4.7711 33.3417 4.64415 33.6704 4.29769L36.0014 1.84068C36.5876 1.22276 37.6079 1.3661 38.0012 2.12162L40.6435 7.19758C41.0151 7.91148 41.9577 8.08782 42.5622 7.55654L44.2158 6.10344C44.6691 5.7051 45.3433 5.69083 45.813 6.06964L51.8131 10.9084" stroke="#E18695" stroke-width="1.24022" stroke-linecap="round"/>
<path opacity="0.8" d="M0.456055 10.1396H57.752" stroke="#AFAFAF" stroke-width="0.826813" stroke-dasharray="2.48 2.48"/>
<defs>
<linearGradient id="paint0_linear_797_8933" x1="28.9568" y1="0.579102" x2="28.9568" y2="19.4796" gradientUnits="userSpaceOnUse">
<stop stop-color="#E18695"/>
<stop offset="1" stop-color="#D9D9D9" stop-opacity="0"/>
</linearGradient>
</defs>
</svg>
