<svg width="88" height="88" viewBox="0 0 88 88" fill="none" xmlns="http://www.w3.org/2000/svg">
<path d="M0.938438 43.7338C0.938438 67.5174 20.2189 86.7979 44.0026 86.7979C67.7862 86.7979 87.0667 67.5174 87.0667 43.7338C87.0667 19.9501 67.7862 0.66964 44.0026 0.66964C20.2189 0.66964 0.938438 19.9501 0.938438 43.7338Z" fill="white"/>
<path d="M0.938438 43.7338C0.938438 67.5174 20.2189 86.7979 44.0026 86.7979C67.7862 86.7979 87.0667 67.5174 87.0667 43.7338C87.0667 19.9501 67.7862 0.66964 44.0026 0.66964C20.2189 0.66964 0.938438 19.9501 0.938438 43.7338Z"  stroke-width="1.33"/>
<rect width="79.8" height="79.8" rx="39.9" transform="matrix(1 0 0 -1 4.10156 83.6338)" fill="#45DAE5" fill-opacity="0.15"/>
<path d="M50.8776 55.667C52.8764 55.6819 54.8006 54.9361 56.2774 53.5936C61.1551 49.3274 58.5447 40.7653 52.1156 39.9598C49.8185 26.0276 29.7257 31.3081 34.4841 44.569"  stroke-opacity="0.7" stroke-width="2.2375" stroke-miterlimit="10" stroke-linecap="round" stroke-linejoin="round"/>
<path d="M36.9617 45.1807C36.1711 44.7779 35.291 44.5691 34.4109 44.584C27.4597 45.0762 27.4747 55.1897 34.4109 55.682"  stroke-opacity="0.7" stroke-width="2.2375" stroke-miterlimit="10" stroke-linecap="round" stroke-linejoin="round"/>
<path d="M49.7031 40.5862C50.4788 40.1984 51.3141 39.9895 52.1793 39.9746"  stroke-opacity="0.7" stroke-width="2.2375" stroke-miterlimit="10" stroke-linecap="round" stroke-linejoin="round"/>
<path d="M45.4432 55.667H39.4766"  stroke-opacity="0.7" stroke-width="2.2375" stroke-miterlimit="10" stroke-linecap="round" stroke-linejoin="round"/>
<path d="M42.4609 58.6505V52.6838"  stroke-opacity="0.7" stroke-width="2.2375" stroke-miterlimit="10" stroke-linecap="round" stroke-linejoin="round"/>
</svg>
