<svg width="21" height="22" viewBox="0 0 21 22" fill="none" xmlns="http://www.w3.org/2000/svg">
<g clip-path="url(#clip0_797_8705)">
<path d="M8.3125 17.4243V16.1118H3.9375C3.45625 16.1118 3.01875 15.9193 2.70375 15.5956C2.38 15.2806 2.1875 14.8431 2.1875 14.3618C2.1875 13.4606 2.8875 12.7081 3.77125 12.6206C3.82375 12.6118 3.87625 12.6118 3.9375 12.6118H17.0625C17.1238 12.6118 17.1763 12.6118 17.2288 12.6206C17.6488 12.6556 18.0162 12.8393 18.2962 13.1281C18.655 13.4781 18.8475 13.9768 18.8037 14.5193C18.725 15.4381 17.8937 16.1118 16.9662 16.1118H12.6875V17.4243C12.6875 18.6318 11.7075 19.6118 10.5 19.6118C9.2925 19.6118 8.3125 18.6318 8.3125 17.4243Z"  stroke-width="1.3125" stroke-linecap="round" stroke-linejoin="round"/>
<path d="M17.6491 4.99932L17.2291 12.6206C17.1766 12.6118 17.1241 12.6118 17.0629 12.6118H3.93789C3.87664 12.6118 3.82414 12.6118 3.77164 12.6206L3.35164 4.99932C3.19414 3.45057 4.41039 2.11182 5.95914 2.11182H15.0416C16.5904 2.11182 17.8066 3.45057 17.6491 4.99932Z"  stroke-width="1.3125" stroke-linecap="round" stroke-linejoin="round"/>
<path d="M6.99121 2.11182V6.48682"  stroke-width="1.3125" stroke-linecap="round" stroke-linejoin="round"/>
<path d="M10.5 2.11182V3.86182"  stroke-width="1.3125" stroke-linecap="round" stroke-linejoin="round"/>
</g>
<defs>
<clipPath id="clip0_797_8705">
<rect width="21" height="21" fill="white" transform="translate(0 0.361816)"/>
</clipPath>
</defs>
</svg>
