<svg width="21" height="22" viewBox="0 0 21 22" fill="none" xmlns="http://www.w3.org/2000/svg">
<path d="M19.25 7.24699V3.71199C19.25 2.32074 18.69 1.76074 17.2988 1.76074H13.7637C12.3725 1.76074 11.8125 2.32074 11.8125 3.71199V7.24699C11.8125 8.63824 12.3725 9.19824 13.7637 9.19824H17.2988C18.69 9.19824 19.25 8.63824 19.25 7.24699Z" stroke="black" stroke-width="1.3125" stroke-linecap="round" stroke-linejoin="round"/>
<path d="M9.1875 7.46574V3.49324C9.1875 2.25949 8.6275 1.76074 7.23625 1.76074H3.70125C2.31 1.76074 1.75 2.25949 1.75 3.49324V7.45699C1.75 8.69949 2.31 9.18949 3.70125 9.18949H7.23625C8.6275 9.19824 9.1875 8.69949 9.1875 7.46574Z" stroke="black" stroke-width="1.3125" stroke-linecap="round" stroke-linejoin="round"/>
<path d="M9.1875 17.3095V13.7745C9.1875 12.3832 8.6275 11.8232 7.23625 11.8232H3.70125C2.31 11.8232 1.75 12.3832 1.75 13.7745V17.3095C1.75 18.7007 2.31 19.2607 3.70125 19.2607H7.23625C8.6275 19.2607 9.1875 18.7007 9.1875 17.3095Z" stroke="black" stroke-width="1.3125" stroke-linecap="round" stroke-linejoin="round"/>
<path d="M13.125 13.5732H18.375" stroke="black" stroke-width="1.3125" stroke-linecap="round"/>
<path d="M13.125 17.0732H18.375" stroke="black" stroke-width="1.3125" stroke-linecap="round"/>
</svg>
