<svg width="23" height="22" viewBox="0 0 23 22" fill="none" xmlns="http://www.w3.org/2000/svg">
<g clip-path="url(#clip0_217_4578)">
<path fill-rule="evenodd" clip-rule="evenodd" d="M22.1621 11.3436C22.1621 10.4511 22.0896 9.79985 21.933 9.12451H11.7422V13.1525H17.7239C17.6034 14.1535 16.9521 15.661 15.5049 16.674L15.4846 16.8089L18.7067 19.3051L18.9299 19.3273C20.9801 17.4339 22.1621 14.648 22.1621 11.3436Z" fill="#4285F4"/>
<path fill-rule="evenodd" clip-rule="evenodd" d="M11.7432 21.9563C14.6737 21.9563 17.1339 20.9915 18.931 19.3273L15.5059 16.674C14.5893 17.3132 13.3592 17.7594 11.7432 17.7594C8.87294 17.7594 6.43683 15.866 5.5684 13.249L5.44115 13.2598L2.0907 15.8528L2.04688 15.9745C3.83173 19.5202 7.49803 21.9563 11.7432 21.9563Z" fill="#34A853"/>
<path fill-rule="evenodd" clip-rule="evenodd" d="M5.5698 13.2491C5.34069 12.5737 5.20804 11.8501 5.20804 11.1024C5.20804 10.3546 5.34063 9.63104 5.55775 8.95571L5.5517 8.81185L2.15931 6.17725L2.04834 6.23006C1.3127 7.70141 0.890625 9.35362 0.890625 11.1023C0.890625 12.851 1.31276 14.5032 2.04834 15.9745L5.56987 13.249" fill="#FBBC04"/>
<path fill-rule="evenodd" clip-rule="evenodd" d="M11.7432 4.44509C13.7813 4.44509 15.1561 5.32551 15.9401 6.06121L19.0033 3.07032C17.122 1.3216 14.6737 0.248291 11.7432 0.248291C7.49803 0.248291 3.8318 2.68439 2.04688 6.23002L5.55635 8.95566C6.43683 6.33864 8.87294 4.44516 11.7432 4.44516" fill="#EA4335"/>
</g>
<defs>
<clipPath id="clip0_217_4578">
<rect width="21.2739" height="21.7081" fill="white" transform="translate(0.890625 0.248291)"/>
</clipPath>
</defs>
</svg>
