<svg width="58" height="20" viewBox="0 0 58 20" fill="none" xmlns="http://www.w3.org/2000/svg">
<path d="M0.456055 19.002H57.752" stroke="#AFAFAF" stroke-width="0.826813" stroke-dasharray="2.48 2.48"/>
<path d="M12.1564 7.85786C10.2974 10.1665 7.46377 12.2658 5.9834 13.1941V18.818H52.1614V13.7786L47.9509 3.73261C47.4127 2.44858 45.6256 2.36369 44.9682 3.59093L40.763 11.4405L35.0151 7.83593L30.2415 12.3173L24.591 10.3689L18.7457 11.4405L15.164 7.59358C14.3628 6.73313 12.8937 6.94216 12.1564 7.85786Z" fill="url(#paint0_linear_797_8929)"/>
<path d="M5.9834 13.1941C7.56756 12.2007 10.7013 9.86638 12.5322 7.3695C13.0536 6.65844 14.1433 6.49739 14.7442 7.14272L18.2827 10.9432C18.5711 11.253 18.9977 11.3943 19.414 11.318L24.2708 10.4276C24.4807 10.3891 24.697 10.4054 24.8988 10.475L29.534 12.0734C29.9691 12.2234 30.4515 12.1201 30.7871 11.8051L34.3177 8.49062C34.7287 8.10486 35.348 8.04469 35.8255 8.34413L39.638 10.735C40.2465 11.1166 41.0509 10.9031 41.3901 10.27L45.3782 2.82552C45.8713 1.90509 47.2116 1.96876 47.6152 2.93178L52.1614 13.7786" stroke="#3AB37E" stroke-width="1.24022" stroke-linecap="round"/>
<defs>
<linearGradient id="paint0_linear_797_8929" x1="29.0724" y1="5.07931" x2="29.0724" y2="18.818" gradientUnits="userSpaceOnUse">
<stop stop-color="#3AB37E"/>
<stop offset="1" stop-color="#D9D9D9" stop-opacity="0"/>
</linearGradient>
</defs>
</svg>
