<svg width="39" height="33" viewBox="0 0 39 33" fill="none" xmlns="http://www.w3.org/2000/svg">
<path fill-rule="evenodd" clip-rule="evenodd" d="M19.3032 1.69069C19.3032 5.91766 16.155 9.4116 12.0764 9.95113C11.8122 7.96416 10.9377 6.17068 9.64636 4.76789C11.0716 2.22278 13.7956 0.5 16.9216 0.5H18.1124C18.7711 0.5 19.3032 1.03209 19.3032 1.69069ZM0.25 4.07208C0.25 3.41348 0.78215 2.88139 1.44083 2.88139H2.63165C7.23494 2.88139 10.9674 6.61347 10.9674 11.2162V12.4069V18.3604C10.9674 18.3997 10.9655 18.4385 10.9618 18.4768C11.1044 20.1853 11.5912 21.8578 12.4042 23.3898C13.6721 25.7789 15.6675 27.7027 18.1016 28.8827C20.5357 30.0627 23.2822 30.4378 25.9437 29.9537C28.6051 29.4695 31.0435 28.1512 32.9058 26.1896C34.7681 24.228 35.9578 21.7248 36.3026 19.0424C36.6475 16.3599 36.1296 13.6373 34.824 11.2686C33.5184 8.89996 31.4927 7.00807 29.0402 5.86677C26.9426 4.89061 24.6258 4.50687 22.339 4.74556C21.6961 4.81266 21.0802 4.40637 20.9544 3.77239C20.8286 3.13833 21.2405 2.51755 21.8824 2.4413C24.6584 2.11153 27.48 2.55879 30.0283 3.74467C32.9313 5.09563 35.3291 7.33508 36.8745 10.1389C38.42 12.9427 39.033 16.1655 38.6248 19.3408C38.2166 22.516 36.8084 25.4791 34.6039 27.801C32.3995 30.123 29.5132 31.6835 26.3628 32.2566C23.2124 32.8297 19.9613 32.3857 17.08 30.9889C14.1988 29.5921 11.8368 27.3149 10.336 24.4869C9.37532 22.6766 8.79939 20.7007 8.62956 18.682C8.60103 18.5797 8.58578 18.4719 8.58578 18.3604V17.9476C8.5734 17.5952 8.57336 17.242 8.58578 16.8886V12.4069C3.9825 12.4069 0.25 8.67486 0.25 4.07208ZM34.1794 17.4922C34.1794 23.1915 29.5585 27.8116 23.8584 27.8116C18.1582 27.8116 13.5373 23.1915 13.5373 17.4922C13.5373 11.793 18.1582 7.17289 23.8584 7.17289C29.5585 7.17289 34.1794 11.793 34.1794 17.4922ZM19.3417 20.39C19.6991 20.39 19.9888 20.6798 19.9888 21.0371V22.8232C19.9888 23.1806 19.6991 23.4703 19.3417 23.4703C18.9843 23.4703 18.6946 23.1806 18.6946 22.8232V21.0371C18.6946 20.6798 18.9843 20.39 19.3417 20.39ZM24.4106 19.251C24.4106 18.8936 24.1209 18.6039 23.7635 18.6039C23.4061 18.6039 23.1164 18.8936 23.1164 19.251V22.8231C23.1164 23.1805 23.4061 23.4702 23.7635 23.4702C24.1209 23.4702 24.4106 23.1805 24.4106 22.8231V19.251ZM28.1853 16.8095C28.5427 16.8095 28.8324 17.0992 28.8324 17.4566V22.8233C28.8324 23.1807 28.5427 23.4705 28.1853 23.4705C27.8279 23.4705 27.5382 23.1807 27.5382 22.8233V17.4566C27.5382 17.0992 27.8279 16.8095 28.1853 16.8095ZM27.535 14.7304V13.9042C25.3435 16.1529 22.5612 17.7525 19.4983 18.5162C19.1515 18.6027 18.8003 18.3917 18.7138 18.0449C18.6273 17.6981 18.8384 17.3469 19.1851 17.2605C22.0794 16.5388 24.7016 15.0095 26.7456 12.8581H25.6541C25.2967 12.8581 25.007 12.5684 25.007 12.211C25.007 11.8536 25.2967 11.5639 25.6541 11.5639H28.1733H28.1814H28.1822C28.5396 11.5639 28.8293 11.8536 28.8293 12.211V14.7304C28.8293 15.0878 28.5396 15.3775 28.1822 15.3775C27.8248 15.3775 27.535 15.0878 27.535 14.7304Z" fill="#29BB49"/>
</svg>
