<svg width="21" height="22" viewBox="0 0 21 22" fill="none" xmlns="http://www.w3.org/2000/svg">
<path d="M2.00293 6.81847V15.3322C2.00293 16.9947 3.18418 17.6772 4.61918 16.8547L6.67543 15.6822C7.12168 15.4285 7.86543 15.4022 8.32918 15.6385L12.9229 17.9397C13.3867 18.1672 14.1304 18.1497 14.5767 17.896L18.3654 15.726C18.8467 15.446 19.2492 14.7635 19.2492 14.2035V5.68971C19.2492 4.02721 18.0679 3.34471 16.6329 4.16721L14.5767 5.33972C14.1304 5.59347 13.3867 5.61971 12.9229 5.38346L8.32918 3.09096C7.86543 2.86346 7.12168 2.88096 6.67543 3.13471L2.88668 5.30472C2.39668 5.58472 2.00293 6.26722 2.00293 6.81847Z"  stroke-width="1.3125" stroke-linecap="round" stroke-linejoin="round"/>
<path d="M7.48828 3.51074V14.8857"  stroke-width="1.3125" stroke-linecap="round" stroke-linejoin="round"/>
<path d="M13.7637 5.80322V17.5107"  stroke-width="1.3125" stroke-linecap="round" stroke-linejoin="round"/>
</svg>
