<svg width="88" height="88" viewBox="0 0 88 88" fill="none" xmlns="http://www.w3.org/2000/svg">
<path d="M0.938438 43.7338C0.938438 67.5174 20.2189 86.7979 44.0026 86.7979C67.7862 86.7979 87.0667 67.5174 87.0667 43.7338C87.0667 19.9501 67.7862 0.66964 44.0026 0.66964C20.2189 0.66964 0.938438 19.9501 0.938438 43.7338Z" fill="white"/>
<path d="M0.938438 43.7338C0.938438 67.5174 20.2189 86.7979 44.0026 86.7979C67.7862 86.7979 87.0667 67.5174 87.0667 43.7338C87.0667 19.9501 67.7862 0.66964 44.0026 0.66964C20.2189 0.66964 0.938438 19.9501 0.938438 43.7338Z" stroke="#E545AA" stroke-width="1.33"/>
<rect width="79.8" height="79.8" rx="39.9" transform="matrix(1 0 0 -1 4.10156 83.6338)" fill="#E545AA" fill-opacity="0.15"/>
<path d="M29.5156 37.4389V51.9528C29.5156 54.7869 31.5294 55.9504 33.9757 54.5483L37.4811 52.5494C38.2419 52.1169 39.5098 52.0721 40.3004 52.4749L48.1316 56.3979C48.9222 56.7858 50.1901 56.7559 50.9509 56.3234L57.4098 52.624C58.2302 52.1467 58.9164 50.9832 58.9164 50.0285V35.5146C58.9164 32.6804 56.9026 31.5169 54.4563 32.9191L50.9509 34.9179C50.1901 35.3505 48.9222 35.3953 48.1316 34.9925L40.3004 31.0844C39.5098 30.6965 38.2419 30.7264 37.4811 31.1589L31.0222 34.8583C30.1869 35.3356 29.5156 36.4991 29.5156 37.4389Z" stroke="#292D32" stroke-width="2.2375" stroke-linecap="round" stroke-linejoin="round"/>
<path d="M38.875 31.8003V51.192" stroke="#292D32" stroke-width="2.2375" stroke-linecap="round" stroke-linejoin="round"/>
<path d="M49.5625 35.7087V55.6672" stroke="#292D32" stroke-width="2.2375" stroke-linecap="round" stroke-linejoin="round"/>
</svg>
