<svg width="21" height="22" viewBox="0 0 21 22" fill="none" xmlns="http://www.w3.org/2000/svg">
<path d="M10.5 5.64551V8.55926" stroke="#292D32" stroke-width="1.3125" stroke-miterlimit="10" stroke-linecap="round"/>
<path d="M10.5166 1.76074C7.29656 1.76074 4.68906 4.36824 4.68906 7.58824V9.42574C4.68906 10.0207 4.44406 10.9132 4.13781 11.4207L3.02656 13.2757C2.34406 14.422 2.81656 15.6995 4.07656 16.1195C8.25906 17.5107 12.7828 17.5107 16.9653 16.1195C18.1466 15.7257 18.6541 14.3432 18.0153 13.2757L16.9041 11.4207C16.5978 10.9132 16.3528 10.012 16.3528 9.42574V7.58824C16.3441 4.38574 13.7191 1.76074 10.5166 1.76074Z" stroke="#292D32" stroke-width="1.3125" stroke-miterlimit="10" stroke-linecap="round"/>
<path d="M13.4154 16.4785C13.4154 18.0798 12.1029 19.3923 10.5016 19.3923C9.70539 19.3923 8.97039 19.0598 8.44539 18.5348C7.92039 18.0098 7.58789 17.2748 7.58789 16.4785" stroke="#292D32" stroke-width="1.3125" stroke-miterlimit="10"/>
</svg>
