<svg width="22" height="17" viewBox="0 0 22 17" fill="none" xmlns="http://www.w3.org/2000/svg">
<g clip-path="url(#clip0_99_1976)">
<path d="M1.85206 0.480862C1.51483 0.21497 1.0252 0.276579 0.759304 0.613808C0.493412 0.951037 0.555021 1.44067 0.89225 1.70656L20.0884 16.7522C20.4256 17.018 20.9152 16.9564 21.1811 16.6192C21.447 16.282 21.3854 15.7924 21.0482 15.5265L17.637 12.8546C18.921 11.5381 19.79 10.0627 20.2278 9.01535C20.3348 8.75918 20.3348 8.47383 20.2278 8.21767C19.7446 7.06007 18.7297 5.37392 17.2122 3.96664C15.6882 2.54639 13.5902 1.35312 10.9702 1.35312C8.75876 1.35312 6.91698 2.20592 5.48051 3.32461L1.85206 0.480862ZM7.82814 5.16316C8.655 4.40763 9.76072 3.94719 10.9702 3.94719C13.5481 3.94719 15.6395 6.03865 15.6395 8.61651C15.6395 9.42391 15.4352 10.1827 15.0753 10.8442L13.8237 9.8649C14.0961 9.23909 14.1674 8.52247 13.9793 7.81235C13.6194 6.46667 12.4294 5.56199 11.1064 5.50687C10.9183 5.50038 10.8081 5.70467 10.8664 5.88625C10.9345 6.09378 10.9734 6.31427 10.9734 6.5445C10.9734 6.87524 10.8956 7.18653 10.7594 7.46215L7.83138 5.1664L7.82814 5.16316ZM12.6888 12.9583C12.157 13.1691 11.5766 13.2858 10.9702 13.2858C8.39235 13.2858 6.30088 11.1944 6.30088 8.61651C6.30088 8.39277 6.3171 8.17552 6.34628 7.96151L3.28852 5.55227C2.54921 6.51531 2.02067 7.47512 1.71262 8.21767C1.60562 8.47383 1.60562 8.75918 1.71262 9.01535C2.19577 10.1729 3.2107 11.8591 4.72823 13.2664C6.25224 14.6866 8.3502 15.8799 10.9702 15.8799C12.5202 15.8799 13.8853 15.4616 15.0624 14.8261L12.6888 12.9583Z" fill="black"/>
</g>
<defs>
<clipPath id="clip0_99_1976">
<rect width="20.7526" height="16.602" fill="white" transform="translate(0.59375 0.315308)"/>
</clipPath>
</defs>
</svg>
