<svg width="23" height="22" viewBox="0 0 23 22" fill="none" xmlns="http://www.w3.org/2000/svg">
<path d="M20.7582 16.8528C20.7582 17.1784 20.6859 17.5131 20.5321 17.8387C20.3783 18.1643 20.1793 18.4719 19.917 18.7613C19.4738 19.2497 18.9854 19.6025 18.4337 19.8286C17.8909 20.0547 17.303 20.1723 16.6699 20.1723C15.7473 20.1723 14.7614 19.9552 13.7212 19.512C12.681 19.0688 11.6408 18.4719 10.6097 17.7211C9.56953 16.9613 8.58362 16.1201 7.64294 15.1885C6.7113 14.2478 5.87012 13.2619 5.11938 12.2308C4.37769 11.1997 3.78072 10.1685 3.34655 9.14644C2.91239 8.11531 2.69531 7.1294 2.69531 6.18872C2.69531 5.57365 2.80385 4.98573 3.02093 4.44303C3.23801 3.89128 3.58172 3.38476 4.06111 2.93251C4.63999 2.36267 5.27314 2.08228 5.94248 2.08228C6.19574 2.08228 6.449 2.13655 6.67512 2.24509C6.91029 2.35363 7.11833 2.51644 7.28114 2.75161L9.37958 5.70933C9.54239 5.93546 9.65998 6.14349 9.74138 6.34248C9.82279 6.53243 9.86802 6.72237 9.86802 6.89423C9.86802 7.11131 9.8047 7.32839 9.67807 7.53642C9.56048 7.74446 9.38863 7.96154 9.17155 8.17862L8.48413 8.89318C8.38463 8.99267 8.33941 9.11026 8.33941 9.25498C8.33941 9.32734 8.34845 9.39065 8.36654 9.46301C8.39368 9.53537 8.42081 9.58964 8.4389 9.64391C8.60171 9.9424 8.88211 10.3313 9.28009 10.8017C9.68711 11.272 10.1213 11.7514 10.5916 12.2308C11.08 12.7102 11.5504 13.1534 12.0298 13.5604C12.5001 13.9584 12.8891 14.2297 13.1966 14.3926C13.2418 14.4106 13.2961 14.4378 13.3594 14.4649C13.4318 14.492 13.5041 14.5011 13.5855 14.5011C13.7393 14.5011 13.8569 14.4468 13.9564 14.3473L14.6438 13.6689C14.8699 13.4428 15.087 13.271 15.295 13.1624C15.5031 13.0358 15.7111 12.9725 15.9372 12.9725C16.1091 12.9725 16.29 13.0087 16.489 13.0901C16.688 13.1715 16.896 13.2891 17.1221 13.4428L20.116 15.5684C20.3512 15.7312 20.514 15.9212 20.6135 16.1473C20.704 16.3734 20.7582 16.5995 20.7582 16.8528Z" stroke="white" stroke-width="1.35675" stroke-miterlimit="10"/>
<path d="M17.6189 8.4138C17.6189 7.8711 17.1938 7.03896 16.5606 6.36058C15.9817 5.73648 15.2129 5.24805 14.4531 5.24805" stroke="white" stroke-width="1.35675" stroke-linecap="round" stroke-linejoin="round"/>
<path d="M20.7846 8.41379C20.7846 4.91337 17.9535 2.08228 14.4531 2.08228" stroke="white" stroke-width="1.35675" stroke-linecap="round" stroke-linejoin="round"/>
</svg>
